<svg width="36" height="36" viewBox="0 0 36 36" fill="none" xmlns="http://www.w3.org/2000/svg">
<rect width="36" height="36" rx="18" fill="white"/>
<path fill-rule="evenodd" clip-rule="evenodd" d="M24.1924 9.12685C24.5649 8.99109 24.9685 8.96451 25.3557 9.05021C25.7428 9.13592 26.0974 9.33035 26.3779 9.61067C26.6583 9.89098 26.853 10.2455 26.9388 10.6326C27.0247 11.0197 26.9983 11.4233 26.8628 11.796L22.2677 25.5683C22.1559 25.9068 21.9591 26.2108 21.6962 26.4515C21.4333 26.6921 21.113 26.8613 20.766 26.9427C20.4198 27.0269 20.0577 27.0197 19.7152 26.9219C19.3726 26.8241 19.0613 26.639 18.8117 26.3847L16.3458 23.9303L13.7564 25.27C13.6571 25.3215 13.5462 25.3462 13.4344 25.3417C13.3227 25.3372 13.2141 25.3036 13.1194 25.2442C13.0246 25.1849 12.9469 25.1019 12.894 25.0034C12.8412 24.9049 12.8149 24.7942 12.8178 24.6825L12.9245 20.5888L21.9823 14.0099C22.0677 13.9479 22.1401 13.8696 22.1953 13.7796C22.2504 13.6896 22.2874 13.5896 22.3039 13.4853C22.3204 13.381 22.3163 13.2745 22.2916 13.1718C22.267 13.0691 22.2224 12.9723 22.1603 12.8869C22.0983 12.8014 22.02 12.7291 21.93 12.6739C21.84 12.6187 21.74 12.5818 21.6357 12.5652C21.5314 12.5487 21.4249 12.5529 21.3222 12.5775C21.2195 12.6021 21.1227 12.6467 21.0373 12.7088L11.8266 19.3996L9.60231 17.1753C9.3626 16.9355 9.18587 16.6402 9.08785 16.3156C8.98982 15.9911 8.97355 15.6473 9.04046 15.3149C9.10763 14.9517 9.2702 14.6128 9.51149 14.3331C9.75278 14.0534 10.0641 13.8429 10.4136 13.7232H10.4187L24.1924 9.12685Z" fill="black"/>
</svg>
