<svg width="137" height="183" viewBox="0 0 137 183" fill="none" xmlns="http://www.w3.org/2000/svg">
<path d="M11.3662 10.9932C11.4115 20.5956 11.4399 26.6077 11.4484 28.4134" stroke="#989090" stroke-width="0.104312"/>
<path d="M12.8367 12.0756H27.3519V14.034H12.8367V12.0756ZM12.1167 22.9908H26.7759V33.4452H24.5583V24.9492H14.2479V33.6468H12.1167V22.9908ZM18.2511 7.38119H20.4399V19.1892H18.2511V7.38119ZM9.66871 18.3828H28.3599V20.37H9.66871V18.3828ZM13.2399 30.45H25.7103V32.3796H13.2399V30.45ZM13.1535 8.41799L15.2559 8.87879C14.9679 9.99239 14.6127 11.0964 14.1903 12.1908C13.7871 13.2852 13.3359 14.3124 12.8367 15.2724C12.3567 16.2324 11.8383 17.0772 11.2815 17.8068C11.1471 17.6916 10.9647 17.5668 10.7343 17.4324C10.5039 17.2788 10.2735 17.1348 10.0431 17.0004C9.81271 16.866 9.61111 16.7604 9.43831 16.6836C10.2831 15.6468 11.0127 14.3988 11.6271 12.9396C12.2607 11.4804 12.7695 9.97319 13.1535 8.41799ZM3.39031 9.02279L4.68631 7.55399C5.28151 7.88039 5.91511 8.25479 6.58711 8.67719C7.27831 9.08039 7.93111 9.49319 8.54551 9.91559C9.17911 10.3188 9.69751 10.6836 10.1007 11.01L8.77591 12.7092C8.39191 12.3636 7.89271 11.9796 7.27831 11.5572C6.66391 11.1156 6.01111 10.674 5.31991 10.2324C4.64791 9.77159 4.00471 9.36839 3.39031 9.02279ZM1.92151 17.0292L3.10231 15.4452C3.65911 15.714 4.26391 16.0212 4.91671 16.3668C5.56951 16.6932 6.19351 17.0292 6.78871 17.3748C7.40311 17.7204 7.90231 18.0372 8.28631 18.3252L7.07671 20.1108C6.69271 19.8228 6.20311 19.4964 5.60791 19.1316C5.03191 18.7668 4.41751 18.402 3.76471 18.0372C3.13111 17.6532 2.51671 17.3172 1.92151 17.0292ZM2.90071 31.8612C3.41911 31.1316 3.99511 30.258 4.62871 29.2404C5.26231 28.2036 5.90551 27.1092 6.55831 25.9572C7.21111 24.786 7.81591 23.6628 8.37271 22.5876L9.92792 23.9988C9.42871 25.0164 8.88151 26.0724 8.28631 27.1668C7.69111 28.2612 7.08631 29.3364 6.47191 30.3924C5.85751 31.4484 5.26231 32.4276 4.68631 33.33L2.90071 31.8612ZM35.3583 18.5844H61.1919V20.5716H35.3583V18.5844ZM36.7983 9.88679H59.8095V11.8164H36.7983V9.88679ZM54.9999 19.506H57.2175V31.0836C57.2175 31.7364 57.1119 32.2356 56.9007 32.5812C56.7087 32.9268 56.3535 33.1956 55.8351 33.3876C55.2975 33.5412 54.5679 33.6276 53.6463 33.6468C52.7439 33.6852 51.6207 33.7044 50.2767 33.7044C50.2191 33.3972 50.1135 33.0516 49.9599 32.6676C49.8063 32.2836 49.6431 31.9476 49.4703 31.6596C50.1999 31.6788 50.8911 31.6884 51.5439 31.6884C52.2159 31.7076 52.7919 31.7076 53.2719 31.6884C53.7519 31.6884 54.0783 31.6884 54.2511 31.6884C54.5583 31.6692 54.7599 31.6116 54.8559 31.5156C54.9519 31.4388 54.9999 31.2852 54.9999 31.0548V19.506ZM38.3247 22.9044H40.3695V32.2644H38.3247V22.9044ZM39.8511 22.9044H49.8447V30.3636H39.8511V28.6068H47.7711V24.6612H39.8511V22.9044ZM47.4255 7.17959H49.6431C49.5279 8.50439 49.3263 9.70439 49.0383 10.7796C48.7695 11.8356 48.3663 12.7764 47.8287 13.602C47.2911 14.4276 46.5711 15.1572 45.6687 15.7908C44.7663 16.4052 43.6335 16.9332 42.2703 17.3748C40.9071 17.7972 39.2559 18.1428 37.3167 18.4116C37.2399 18.162 37.0959 17.8644 36.8847 17.5188C36.6927 17.1732 36.5103 16.9044 36.3375 16.7124C38.1231 16.482 39.6303 16.1844 40.8591 15.8196C42.1071 15.4548 43.1343 15.0228 43.9407 14.5236C44.7471 14.0052 45.3807 13.3908 45.8415 12.6804C46.3215 11.97 46.6767 11.1636 46.9071 10.2612C47.1375 9.35879 47.3103 8.33159 47.4255 7.17959ZM46.2447 13.6596L47.8575 12.2484C48.8175 12.5556 49.8159 12.9108 50.8527 13.314C51.9087 13.698 52.9551 14.1012 53.9919 14.5236C55.0287 14.9268 56.0079 15.33 56.9295 15.7332C57.8511 16.1172 58.6575 16.4724 59.3487 16.7988L57.7647 18.354C57.0927 18.0276 56.2959 17.6628 55.3743 17.2596C54.4719 16.8372 53.4927 16.4148 52.4367 15.9924C51.3999 15.57 50.3535 15.1572 49.2975 14.754C48.2415 14.3508 47.2239 13.986 46.2447 13.6596ZM70.4943 18.9876H79.1631V20.7444H70.4943V18.9876ZM69.3135 10.2324H78.7311V12.1044H69.3135V10.2324ZM68.1615 14.9556H82.1295V16.8564H68.1615V14.9556ZM73.1151 7.20839H75.1311V15.9348H73.1151V7.20839ZM80.7471 7.87079L82.7631 8.44679C81.3231 12.018 79.4319 15.1476 77.0895 17.8356C74.7663 20.5236 72.0975 22.722 69.0831 24.4308C68.9871 24.2964 68.8431 24.1236 68.6511 23.9124C68.4783 23.7012 68.2863 23.4996 68.0751 23.3076C67.8831 23.0964 67.7103 22.9236 67.5567 22.7892C70.5711 21.2532 73.1919 19.2084 75.4191 16.6548C77.6655 14.1012 79.4415 11.1732 80.7471 7.87079ZM74.2671 22.8756H76.2831V31.4004C76.2831 31.9572 76.2159 32.3796 76.0815 32.6676C75.9471 32.9748 75.6783 33.2052 75.2751 33.3588C74.8719 33.5124 74.3535 33.6084 73.7199 33.6468C73.0863 33.6852 72.3087 33.7044 71.3871 33.7044C71.3487 33.4164 71.2623 33.09 71.1279 32.7252C71.0127 32.3796 70.8783 32.0724 70.7247 31.8036C71.4351 31.8228 72.0687 31.8324 72.6255 31.8324C73.1823 31.8324 73.5663 31.8228 73.7775 31.8036C73.9695 31.8036 74.0943 31.7652 74.1519 31.6884C74.2287 31.6308 74.2671 31.5252 74.2671 31.3716V22.8756ZM78.7311 18.9876H79.1919L79.5951 18.8724L80.8335 19.794C80.1615 20.6388 79.3647 21.474 78.4431 22.2996C77.5407 23.1252 76.6671 23.8164 75.8223 24.3732C75.6879 24.2004 75.5055 24.0084 75.2751 23.7972C75.0447 23.5668 74.8527 23.3844 74.6991 23.25C75.1983 22.9236 75.6975 22.5396 76.1967 22.098C76.7151 21.6372 77.1951 21.1668 77.6367 20.6868C78.0783 20.2068 78.4431 19.7556 78.7311 19.3332V18.9876ZM68.0175 26.0436C69.1887 25.9476 70.5423 25.8228 72.0783 25.6692C73.6335 25.5156 75.2751 25.3524 77.0031 25.1796C78.7503 24.9876 80.4879 24.8052 82.2159 24.6324V26.5044C80.5647 26.6964 78.8943 26.8884 77.2047 27.0804C75.5151 27.2532 73.9119 27.426 72.3951 27.5988C70.8783 27.7524 69.5055 27.8964 68.2767 28.0308L68.0175 26.0436ZM84.3759 12.5652H94.6287V14.5812H84.3759V12.5652ZM85.1247 7.20839L87.3135 7.55399C86.9871 9.35879 86.5743 11.106 86.0751 12.7956C85.5759 14.4852 84.9999 16.0692 84.3471 17.5476C83.7135 19.0068 82.9935 20.2836 82.1871 21.378C82.0719 21.2436 81.9087 21.0804 81.6975 20.8884C81.4863 20.6964 81.2559 20.514 81.0063 20.3412C80.7759 20.1492 80.5743 20.0052 80.4015 19.9092C81.1887 18.9108 81.8799 17.7396 82.4751 16.3956C83.0895 15.0324 83.6175 13.5732 84.0591 12.018C84.5007 10.4436 84.8559 8.84039 85.1247 7.20839ZM90.6543 13.6884L92.8719 13.9188C92.4111 17.2212 91.7199 20.1396 90.7983 22.674C89.8959 25.1892 88.6671 27.3588 87.1119 29.1828C85.5759 31.0068 83.5983 32.5428 81.1791 33.7908C81.1023 33.618 80.9871 33.4068 80.8335 33.1572C80.6799 32.9076 80.5167 32.658 80.3439 32.4084C80.1903 32.178 80.0367 31.9956 79.8831 31.8612C82.1679 30.786 84.0303 29.4132 85.4703 27.7428C86.9103 26.0724 88.0335 24.0756 88.8399 21.7524C89.6655 19.41 90.2703 16.722 90.6543 13.6884ZM85.4703 14.2932C85.8927 16.9428 86.4879 19.4292 87.2559 21.7524C88.0431 24.0756 89.0511 26.1108 90.2799 27.858C91.5279 29.586 93.0543 30.93 94.8591 31.89C94.6863 32.0244 94.4943 32.1972 94.2831 32.4084C94.0911 32.6196 93.9087 32.8404 93.7359 33.0708C93.5631 33.3204 93.4191 33.5412 93.3039 33.7332C91.4415 32.6004 89.8671 31.1028 88.5807 29.2404C87.2943 27.3588 86.2479 25.1796 85.4415 22.7028C84.6351 20.226 83.9919 17.5284 83.5119 14.61L85.4703 14.2932ZM105.947 19.4196H121.758V21.234H108.107V33.7044H105.947V19.4196ZM121.01 19.4196H123.198V31.4004C123.198 31.9764 123.102 32.418 122.91 32.7252C122.738 33.0324 122.43 33.2532 121.989 33.3876C121.528 33.5412 120.914 33.6276 120.146 33.6468C119.378 33.6852 118.418 33.7044 117.266 33.7044C117.208 33.4356 117.112 33.1284 116.978 32.7828C116.843 32.4564 116.699 32.1684 116.546 31.9188C117.122 31.938 117.669 31.9476 118.187 31.9476C118.706 31.9476 119.166 31.938 119.57 31.9188C119.973 31.9188 120.251 31.9188 120.405 31.9188C120.635 31.9188 120.789 31.8708 120.866 31.7748C120.962 31.698 121.01 31.5636 121.01 31.3716V19.4196ZM107.214 23.4516H121.902V25.0644H107.214V23.4516ZM101.829 10.0308H127.173V11.9604H101.829V10.0308ZM109.835 11.1828L112.168 11.874C111.554 12.7572 110.872 13.6596 110.123 14.5812C109.374 15.5028 108.693 16.29 108.078 16.9428L106.35 16.2804C106.734 15.8196 107.138 15.2916 107.56 14.6964C108.002 14.1012 108.414 13.4964 108.798 12.882C109.202 12.2676 109.547 11.7012 109.835 11.1828ZM117.842 13.026L119.57 11.9028C120.414 12.4596 121.298 13.0836 122.219 13.7748C123.16 14.4468 124.043 15.1284 124.869 15.8196C125.694 16.5108 126.366 17.1348 126.885 17.6916L125.07 18.9876C124.59 18.4116 123.947 17.778 123.141 17.0868C122.334 16.3764 121.47 15.666 120.549 14.9556C119.627 14.2452 118.725 13.602 117.842 13.026ZM102.952 15.618C104.238 15.618 105.688 15.6084 107.301 15.5892C108.933 15.5508 110.67 15.522 112.514 15.5028C114.357 15.4644 116.248 15.426 118.187 15.3876C120.146 15.3492 122.085 15.3108 124.005 15.2724L123.89 17.058C121.374 17.1348 118.85 17.2116 116.315 17.2884C113.781 17.3652 111.371 17.4324 109.086 17.49C106.802 17.5476 104.786 17.5956 103.038 17.634L102.952 15.618ZM107.214 27.282H121.816V28.8948H107.214V27.282ZM113.32 7.17959H115.538V10.9524H113.32V7.17959Z" fill="#464646"/>
<path d="M11.3493 84.8147C14.5024 81.805 16.1267 79.261 16.5447 78.3652C16.6641 78.3652 17.0105 78.4369 17.4405 78.7235C17.8704 79.0102 24.4274 83.9787 27.6522 86.4271C27.7716 86.9049 27.9388 88.0037 27.6522 88.5769C27.2939 89.2936 24.4274 94.3098 24.0691 94.489C23.7108 94.6681 23.1734 95.2056 22.0985 94.3098C20.3786 90.7268 14.574 87.084 11.8867 85.7105C11.6479 85.6508 11.206 85.388 11.3493 84.8147Z" fill="#F29D6F"/>
<path d="M6.5225 105.058C8.95898 102.479 10.0458 100.042 10.2847 99.1463C10.2847 98.8477 10.6072 98.5013 11.8971 99.5046C17.9883 103.625 22.4671 107.387 22.6463 107.566C22.8254 107.746 23.1837 108.641 23.0046 110.254C22.8612 111.544 20.9145 114.494 19.959 115.807C19.4812 116.464 18.3108 117.384 17.4508 115.807C15.301 112.511 9.62782 108.462 7.05996 106.85C6.64194 106.671 5.94921 106.062 6.5225 105.058Z" fill="#F29D6F"/>
<path d="M7.05996 141.785C14.3694 134.332 19.8993 123.392 21.7505 118.853C22.4364 117.277 23.4695 117.838 23.9003 118.316C24.7961 119.331 26.6235 121.54 26.7668 122.257C26.7668 132.827 15.6593 145.189 15.4801 145.368C15.301 145.547 10.2847 151.101 7.95573 146.622C7.77658 146.263 5.80589 142.68 7.05996 141.785Z" fill="#F29D6F"/>
<path d="M27.6625 99.5046C33.2521 93.915 35.3661 86.0681 35.7244 82.8434C36.1544 80.9802 38.0534 80.9921 38.9492 81.231C40.3227 81.8282 43.1413 83.2375 43.428 84.0974C43.6071 85.5307 41.9948 89.2929 42.1739 89.472C42.3172 89.6153 46.175 89.5317 48.086 89.472C48.2651 89.472 48.6593 89.3645 48.8026 88.9346C49.1609 84.0974 48.8026 81.4101 48.8026 80.5144C48.8026 79.7978 49.7581 79.4992 50.2358 79.4395H55.7895C56.5062 79.4395 57.2825 80.1561 57.5811 80.5144V89.2929H70.8384C71.985 89.5795 72.1522 90.4872 72.0925 90.9052V95.9215C72.0925 96.4948 71.8536 96.7576 71.7341 96.8173C71.137 96.877 69.441 96.9606 67.4345 96.8173C61.5224 96.459 58.8351 96.8173 58.1185 96.8173C57.5452 96.8173 57.2825 97.1756 57.2228 97.3547V107.746L62.9557 107.925C57.4616 110.015 46.0078 114.303 44.1446 114.733C42.2814 114.876 36.3216 115.151 33.5746 115.27C31.0664 115.091 29.2749 115.987 29.0958 112.762C28.9166 106.133 28.9166 106.85 30.7081 107.566C31.4248 107.746 30.8873 107.746 32.3205 107.925C37.6951 108.104 48.6234 108.104 49.34 107.566C49.6267 106.133 49.4595 100.4 49.34 97.713C49.4595 97.5339 49.4475 97.1039 48.4443 96.8173C47.3694 96.8173 43.0697 96.6381 39.6658 97.1756C35.0078 105.596 33.0371 107.925 30.7081 105.058C28.3792 102.192 25.871 101.296 27.6625 99.5046Z" fill="#F29D6F"/>
<path d="M68.4556 82.901L126.681 63.1941C132.772 61.2235 130.264 64.6274 129.906 66.598C127.577 72.6892 114.14 106.191 111.811 107.803C105.899 104.041 104.466 102.249 102.674 100.1C99.9869 96.6957 94.0749 93.8293 92.6417 93.2918C91.4951 92.8619 92.0445 92.2766 92.4625 92.0378C102.376 84.6925 123.592 68.8394 125.427 67.1355C127.935 64.8065 125.914 66.1368 125.248 66.598C113.244 74.8988 89.7751 89.3504 88.1627 89.7088C86.3712 87.9172 84.2213 87.2006 82.9672 87.0215C70.3549 85.5882 67.9779 83.7967 68.4556 82.901Z" fill="white" stroke="black" stroke-opacity="0.3" stroke-width="0.48"/>
<path d="M80.5305 96.602C81.9637 92.0157 83.2701 91.1713 83.8075 90.9922C84.345 90.813 84.6153 90.7616 86.6218 92.4815C89.8465 94.9896 92.5338 94.9896 90.384 96.9603C85.1885 101.081 82.8594 103.768 77.1265 108.784C72.1102 114.947 61.8983 118.817 57.5986 120.429C7.43582 146.048 27.1426 171.309 35.9211 169.876C37.202 169.666 38.1306 169.696 38.4292 169.696C39.6236 170.114 40.9374 170.7 40.2208 171.13C39.5041 171.13 39.0861 171.249 38.9667 171.309C37.3543 171.488 33.5563 171.667 31.2632 170.95C2.41959 162.889 26.7844 128.67 42.9081 121.325C59.0319 113.98 54.9115 117.921 66.3773 111.293C77.8431 104.664 78.739 102.335 80.5305 96.602Z" fill="#FFF9F0" stroke="black" stroke-opacity="0.3" stroke-width="0.48"/>
<path fill-rule="evenodd" clip-rule="evenodd" d="M46.9014 174.292V158.705C47.0805 158.347 47.4389 157.81 48.6929 157.63C66.8346 158.623 67.4844 158.157 67.9401 157.831C68.0605 157.744 68.1672 157.668 68.5789 157.63C70.0724 157.495 71.3601 157.565 72.1301 157.607C72.3761 157.62 72.5692 157.63 72.6994 157.63C73.2368 157.63 74.8492 159.064 74.8492 159.959C74.8492 160.136 74.8423 160.645 74.8325 161.362C74.7926 164.292 74.7053 170.703 74.8492 172.142C75.0284 173.933 73.416 174.829 73.2368 174.829C73.2171 174.829 73.1226 174.831 72.9665 174.835C71.7028 174.864 66.3526 174.988 62.846 174.829C58.9046 174.65 57.2922 174.65 55.1424 175.008C52.9926 175.367 48.5137 175.367 48.3346 175.367C48.1554 175.367 46.9014 175.187 46.9014 174.292ZM54.6049 164.08C54.7841 165.155 55.0349 167.591 54.605 168.738C54.4616 169.168 55.1424 169.156 55.5007 169.096C57.5908 168.977 62.8101 168.81 66.9665 169.096C67.1276 168.935 67.1076 168.593 67.0693 167.939C67.0225 167.139 66.9485 165.872 67.1456 163.901C67.1456 163.841 67.074 163.722 66.7873 163.722C66.7374 163.722 66.5102 163.729 66.1508 163.74C63.9298 163.808 56.6595 164.03 54.9633 163.722C54.6049 163.901 54.5452 163.96 54.6049 164.08Z" fill="#F29D6F"/>
<path d="M70.383 117.402L73.7869 114.356C74.3602 113.64 75.2201 113.819 75.5784 113.998C77.1908 114.536 79.699 117.76 80.2364 118.477C80.5947 118.835 80.5947 120.089 80.2364 120.806C82.2071 120.627 96.3602 121.164 97.2559 121.164C98.51 121.523 98.8683 122.06 99.0475 122.418C99.2266 122.777 99.2266 127.793 99.0475 128.689C98.9042 129.405 98.0323 129.465 97.6143 129.405C95.4644 128.975 94.0312 128.689 92.4188 128.689C75.2201 128.689 75.3993 128.868 76.6534 129.943C81.1322 131.555 92.0605 135.496 93.1354 135.855C94.2103 136.213 95.8227 138.005 95.1061 139.796C94.5328 141.229 92.0008 143.14 90.8064 143.917L91.8814 144.992C91.9411 145.111 92.3113 145.386 93.3146 145.529C94.5687 145.708 100.66 145.529 101.197 145.529C101.627 145.529 101.854 146.007 101.914 146.246V151.979C101.914 152.265 101.675 152.576 101.556 152.695H91.7022C91.2722 152.695 91.1647 153.053 91.1647 153.233C91.2842 157.711 91.4514 168.389 91.1647 175.268C90.8064 183.868 76.4742 182.614 75.7576 182.435C75.1843 182.291 75.041 181.897 75.041 181.718V175.806C75.041 175.519 75.5187 175.328 75.7576 175.268H80.953C81.3711 175.268 82.2788 174.982 82.5654 173.835C83.1387 168.819 82.8043 158.01 82.5654 153.233C82.6251 153.053 82.5654 152.695 81.8488 152.695C78.9824 152.695 39.927 152.874 38.673 152.695C37.6697 152.552 37.5383 152.158 37.598 151.979V146.604C37.7772 146.425 37.0606 146.425 38.8521 145.35C52.0918 146.496 73.3914 145.828 82.3863 145.35C83.8195 142.842 84.1778 142.842 85.2527 141.588C84.8227 141.014 76.8325 138.005 72.8912 136.571C72.5926 136.333 71.8521 135.998 71.2788 136.571C67.2658 139.724 58.1409 143.379 54.0801 144.812C52.4677 144.872 48.9922 144.956 47.9889 144.812C44.2625 139.366 46.3168 137.885 47.8098 137.825C57.8423 135.855 64.8293 130.838 63.9335 130.838C62.142 131.376 53.1246 131.495 48.7055 131.376C48.2278 131.018 47.5589 130.229 48.7055 129.943C56.0508 127.972 65.725 121.523 66.0833 121.164C66.4417 120.806 67.3374 120.806 67.5166 120.806H70.2039C70.5025 120.866 71.028 120.806 70.7413 120.089C69.8456 117.939 69.6664 117.939 70.383 117.402Z" fill="#F29D6F"/>
</svg>
