<svg width="333" height="143" viewBox="0 0 333 143" fill="none" xmlns="http://www.w3.org/2000/svg">
<path d="M0.430056 73.726C-3.73319 36.9574 23.3562 13.2883 37.4211 6.82288C43.3285 3.59018 62.26 -1.86328 89.0398 1.62243C115.82 5.10813 135.829 21.6746 140.94 30.8574C154.583 50.6753 158.156 95.7768 142.768 120.53C131.235 139.083 66.5835 144.203 51.908 142.035C31.9357 139.083 5.63412 119.687 0.430056 73.726Z" fill="#F29D6F"/>
<path d="M24.3135 41.567C27.1768 38.8338 28.6519 36.5236 29.0315 35.7102C29.1399 35.7102 29.4545 35.7753 29.8449 36.0356C30.2354 36.2959 36.1897 40.8078 39.1181 43.0312C39.2266 43.465 39.3784 44.4628 39.1181 44.9834C38.7928 45.6342 36.1897 50.1894 35.8644 50.3521C35.539 50.5148 35.0509 51.0029 34.0748 50.1894C32.513 46.9357 27.2419 43.6277 24.8016 42.3804C24.5846 42.3262 24.1834 42.0876 24.3135 41.567Z" fill="white"/>
<path d="M19.9307 59.9509C22.1433 57.6082 23.1302 55.3957 23.3472 54.5822C23.3472 54.3111 23.64 53.9965 24.8114 54.9076C30.3427 58.6494 34.41 62.0659 34.5726 62.2286C34.7353 62.3912 35.0607 63.2047 34.898 64.6689C34.7679 65.8402 33 68.5192 32.1323 69.7122C31.6985 70.3087 30.6356 71.1439 29.8547 69.7122C27.9024 66.7187 22.7506 63.042 20.4188 61.5778C20.0392 61.4151 19.4101 60.862 19.9307 59.9509Z" fill="white"/>
<path d="M20.4188 93.302C27.0564 86.5342 32.0781 76.5993 33.7592 72.4779C34.3821 71.0463 35.3202 71.556 35.7115 71.9898C36.5249 72.9117 38.1843 74.9182 38.3145 75.569C38.3145 85.1676 28.2278 96.3931 28.0651 96.5558C27.9024 96.7184 23.3472 101.762 21.2322 97.6946C21.0695 97.3692 19.28 94.1154 20.4188 93.302Z" fill="white"/>
<path d="M39.1279 54.9076C44.2038 49.8317 46.1235 42.706 46.4489 39.7776C46.8393 38.0856 48.5638 38.0965 49.3773 38.3134C50.6245 38.8557 53.1842 40.1355 53.4445 40.9164C53.6072 42.2179 52.143 45.6344 52.3056 45.7971C52.4358 45.9272 55.939 45.8513 57.6744 45.7971C57.837 45.7971 58.195 45.6994 58.3251 45.309C58.6505 40.9164 58.3251 38.4761 58.3251 37.6627C58.3251 37.0119 59.1928 36.7408 59.6266 36.6865H64.6699C65.3207 36.6865 66.0257 37.3373 66.2968 37.6627V45.6344H78.3357C79.3769 45.8947 79.5288 46.719 79.4746 47.0986V51.6538C79.4746 52.1744 79.2576 52.413 79.1492 52.4673C78.6069 52.5215 77.0668 52.5974 75.2447 52.4673C69.876 52.1419 67.4356 52.4673 66.7849 52.4673C66.2643 52.4673 66.0257 52.7926 65.9714 52.9553V62.3912L71.1775 62.5539C66.1884 64.452 55.7872 68.3456 54.0952 68.7361C52.4033 68.8662 46.9912 69.1157 44.4966 69.2242C42.219 69.0615 40.5921 69.8749 40.4294 66.9465C40.2667 60.9271 40.2667 61.5778 41.8936 62.2286C42.5444 62.3912 42.0563 62.3912 43.3578 62.5539C48.2384 62.7166 58.1624 62.7166 58.8132 62.2286C59.0735 60.927 58.9216 55.721 58.8132 53.2807C58.9216 53.118 58.9108 52.7276 57.9997 52.4673C57.0236 52.4673 53.1191 52.3046 50.028 52.7926C45.7981 60.439 44.0086 62.5539 41.8936 59.9509C39.7787 57.3479 37.501 56.5345 39.1279 54.9076Z" fill="white"/>
<path fill-rule="evenodd" clip-rule="evenodd" d="M56.5986 122.821V108.667C56.7613 108.342 57.0867 107.854 58.2255 107.691C74.6999 108.592 75.29 108.169 75.7039 107.873C75.8131 107.794 75.9101 107.725 76.2839 107.691C77.6402 107.568 78.8095 107.631 79.5088 107.669C79.7321 107.681 79.9075 107.691 80.0257 107.691C80.5138 107.691 81.978 108.992 81.978 109.806C81.978 109.966 81.9717 110.428 81.9628 111.079C81.9266 113.741 81.8473 119.562 81.978 120.869C82.1407 122.496 80.6765 123.309 80.5138 123.309C80.4959 123.309 80.41 123.311 80.2683 123.314C79.1207 123.341 74.2622 123.454 71.0779 123.309C67.4987 123.146 66.0345 123.146 64.0823 123.472C62.13 123.797 58.0628 123.797 57.9001 123.797C57.7374 123.797 56.5986 123.634 56.5986 122.821ZM63.5942 113.548C63.7569 114.524 63.9847 116.736 63.5942 117.778C63.4641 118.168 64.0823 118.157 64.4077 118.103C66.3057 117.995 71.0453 117.843 74.8197 118.103C74.966 117.957 74.9478 117.646 74.9131 117.052C74.8706 116.326 74.8033 115.176 74.9824 113.385C74.9824 113.331 74.9173 113.222 74.657 113.222C74.6117 113.222 74.4054 113.229 74.079 113.239C72.0621 113.3 65.4599 113.502 63.9196 113.222C63.5942 113.385 63.54 113.439 63.5942 113.548Z" fill="white"/>
<path d="M77.9218 71.1592L81.0129 68.3935C81.5335 67.7427 82.3144 67.9054 82.6398 68.0681C84.104 68.5562 86.3816 71.4846 86.8697 72.1353C87.1951 72.4607 87.1951 73.5995 86.8697 74.2503C88.6593 74.0876 101.512 74.5756 102.325 74.5756C103.464 74.901 103.789 75.3891 103.952 75.7145C104.115 76.0398 104.115 80.5951 103.952 81.4085C103.822 82.0593 103.03 82.1135 102.65 82.0593C100.698 81.6688 99.3967 81.4085 97.9325 81.4085C82.3144 81.4085 82.4771 81.5712 83.6159 82.5474C87.6831 84.0116 97.6071 87.5907 98.5832 87.9161C99.5594 88.2414 101.024 89.8683 100.373 91.4952C99.8522 92.7967 97.5529 94.5321 96.4683 95.237L97.4444 96.2132C97.4986 96.3216 97.8349 96.5711 98.7459 96.7012C99.8847 96.8639 105.416 96.7012 105.904 96.7012C106.295 96.7012 106.501 97.1351 106.555 97.352V102.558C106.555 102.818 106.338 103.1 106.23 103.209H97.2817C96.8913 103.209 96.7937 103.534 96.7937 103.697C96.9021 107.764 97.054 117.46 96.7937 123.707C96.4683 131.516 83.4532 130.378 82.8025 130.215C82.2819 130.085 82.1517 129.727 82.1517 129.564V124.196C82.1517 123.935 82.5856 123.762 82.8025 123.707H87.5204C87.9 123.707 88.7243 123.447 88.9846 122.406C89.5052 117.851 89.2016 108.035 88.9846 103.697C89.0389 103.534 88.9846 103.209 88.3339 103.209C85.7309 103.209 50.2649 103.371 49.126 103.209C48.215 103.079 48.0957 102.721 48.1499 102.558V97.6774C48.3126 97.5147 47.6618 97.5147 49.2887 96.5385C61.3116 97.5797 80.6537 96.9724 88.8219 96.5385C90.1234 94.2609 90.4488 94.2609 91.425 93.1221C91.0345 92.6015 83.7786 89.8683 80.1995 88.5668C79.9283 88.3499 79.2559 88.0462 78.7353 88.5668C75.0911 91.4301 66.8048 94.749 63.1172 96.0505C61.653 96.1047 58.4969 96.1806 57.5858 96.0505C54.2019 91.1048 56.0674 89.7599 57.4231 89.7056C66.5337 87.9161 72.8785 83.3608 72.0651 83.3608C70.4382 83.8489 62.2496 83.9573 58.2366 83.8489C57.8027 83.5235 57.1954 82.8077 58.2366 82.5474C64.9068 80.7578 73.6919 74.901 74.0173 74.5756C74.3427 74.2503 75.1561 74.2503 75.3188 74.2503H77.7592C78.0303 74.3045 78.5075 74.2503 78.2472 73.5995C77.4338 71.6473 77.2711 71.6473 77.9218 71.1592Z" fill="white"/>
<path d="M76.2716 41.0916L126.158 24.2232C131.377 22.5363 129.228 25.4499 128.921 27.1368C126.926 32.3507 115.413 61.027 113.418 62.4072C108.353 59.1868 107.125 57.6533 105.59 55.8132C103.287 52.8995 98.2218 50.4459 96.9939 49.9859C96.0115 49.6178 96.4822 49.1169 96.8404 48.9124C105.334 42.6251 123.512 29.0553 125.084 27.5968C127.233 25.6033 125.502 26.742 124.93 27.1368C114.646 34.242 94.5378 46.6122 93.1564 46.9189C91.6214 45.3854 89.7794 44.772 88.7049 44.6186C77.8988 43.3918 75.8622 41.8583 76.2716 41.0916Z" fill="#FFF4E3" stroke="black" stroke-opacity="0.2"/>
<path d="M87.1369 52.2698C88.4384 48.105 89.6247 47.3382 90.1127 47.1755C90.6008 47.0128 90.8462 46.9662 92.6683 48.528C95.5967 50.8056 98.0371 50.8056 96.0848 52.5952C91.3668 56.337 89.2517 58.7773 84.0457 63.3326C79.4904 68.929 70.217 72.4431 66.3125 73.9073C20.7598 97.1717 38.6555 120.111 46.6272 118.809C47.7904 118.619 48.6337 118.647 48.9048 118.647C49.9894 119.026 51.1825 119.558 50.5317 119.948C49.881 119.948 49.5014 120.057 49.3929 120.111C47.9287 120.273 44.4798 120.436 42.3974 119.785C16.2046 112.464 38.3302 81.391 52.9721 74.7207C67.6141 68.0505 63.8723 71.6297 74.2844 65.6102C84.6964 59.5907 85.51 57.4758 87.1369 52.2698Z" fill="#FFF9F0" stroke="black" stroke-opacity="0.2"/>
<path d="M184.488 72.5933C184.533 82.1957 184.562 88.2078 184.57 90.0135" stroke="#989090" stroke-width="0.104312"/>
<path d="M188.959 61.6752H203.474V63.6336H188.959V61.6752ZM188.239 72.5904H202.898V83.0448H200.68V74.5488H190.37V83.2464H188.239V72.5904ZM194.373 56.9808H196.562V68.7888H194.373V56.9808ZM185.791 67.9824H204.482V69.9696H185.791V67.9824ZM189.362 80.0496H201.832V81.9792H189.362V80.0496ZM189.275 58.0176L191.378 58.4784C191.09 59.592 190.735 60.696 190.312 61.7904C189.909 62.8848 189.458 63.912 188.959 64.872C188.479 65.832 187.96 66.6768 187.403 67.4064C187.269 67.2912 187.087 67.1664 186.856 67.032C186.626 66.8784 186.395 66.7344 186.165 66.6C185.935 66.4656 185.733 66.36 185.56 66.2832C186.405 65.2464 187.135 63.9984 187.749 62.5392C188.383 61.08 188.891 59.5728 189.275 58.0176ZM179.512 58.6224L180.808 57.1536C181.403 57.48 182.037 57.8544 182.709 58.2768C183.4 58.68 184.053 59.0928 184.667 59.5152C185.301 59.9184 185.819 60.2832 186.223 60.6096L184.898 62.3088C184.514 61.9632 184.015 61.5792 183.4 61.1568C182.786 60.7152 182.133 60.2736 181.442 59.832C180.77 59.3712 180.127 58.968 179.512 58.6224ZM178.043 66.6288L179.224 65.0448C179.781 65.3136 180.386 65.6208 181.039 65.9664C181.691 66.2928 182.315 66.6288 182.911 66.9744C183.525 67.32 184.024 67.6368 184.408 67.9248L183.199 69.7104C182.815 69.4224 182.325 69.096 181.73 68.7312C181.154 68.3664 180.539 68.0016 179.887 67.6368C179.253 67.2528 178.639 66.9168 178.043 66.6288ZM179.023 81.4608C179.541 80.7312 180.117 79.8576 180.751 78.84C181.384 77.8032 182.027 76.7088 182.68 75.5568C183.333 74.3856 183.938 73.2624 184.495 72.1872L186.05 73.5984C185.551 74.616 185.003 75.672 184.408 76.7664C183.813 77.8608 183.208 78.936 182.594 79.992C181.979 81.048 181.384 82.0272 180.808 82.9296L179.023 81.4608ZM211.48 68.184H237.314V70.1712H211.48V68.184ZM212.92 59.4864H235.931V61.416H212.92V59.4864ZM231.122 69.1056H233.339V80.6832C233.339 81.336 233.234 81.8352 233.023 82.1808C232.831 82.5264 232.475 82.7952 231.957 82.9872C231.419 83.1408 230.69 83.2272 229.768 83.2464C228.866 83.2848 227.743 83.304 226.399 83.304C226.341 82.9968 226.235 82.6512 226.082 82.2672C225.928 81.8832 225.765 81.5472 225.592 81.2592C226.322 81.2784 227.013 81.288 227.666 81.288C228.338 81.3072 228.914 81.3072 229.394 81.288C229.874 81.288 230.2 81.288 230.373 81.288C230.68 81.2688 230.882 81.2112 230.978 81.1152C231.074 81.0384 231.122 80.8848 231.122 80.6544V69.1056ZM214.447 72.504H216.491V81.864H214.447V72.504ZM215.973 72.504H225.967V79.9632H215.973V78.2064H223.893V74.2608H215.973V72.504ZM223.547 56.7792H225.765C225.65 58.104 225.448 59.304 225.16 60.3792C224.891 61.4352 224.488 62.376 223.951 63.2016C223.413 64.0272 222.693 64.7568 221.791 65.3904C220.888 66.0048 219.755 66.5328 218.392 66.9744C217.029 67.3968 215.378 67.7424 213.439 68.0112C213.362 67.7616 213.218 67.464 213.007 67.1184C212.815 66.7728 212.632 66.504 212.459 66.312C214.245 66.0816 215.752 65.784 216.981 65.4192C218.229 65.0544 219.256 64.6224 220.063 64.1232C220.869 63.6048 221.503 62.9904 221.963 62.28C222.443 61.5696 222.799 60.7632 223.029 59.8608C223.259 58.9584 223.432 57.9312 223.547 56.7792ZM222.367 63.2592L223.979 61.848C224.939 62.1552 225.938 62.5104 226.975 62.9136C228.031 63.2976 229.077 63.7008 230.114 64.1232C231.151 64.5264 232.13 64.9296 233.051 65.3328C233.973 65.7168 234.779 66.072 235.471 66.3984L233.887 67.9536C233.215 67.6272 232.418 67.2624 231.496 66.8592C230.594 66.4368 229.615 66.0144 228.559 65.592C227.522 65.1696 226.475 64.7568 225.419 64.3536C224.363 63.9504 223.346 63.5856 222.367 63.2592ZM246.616 68.5872H255.285V70.344H246.616V68.5872ZM245.435 59.832H254.853V61.704H245.435V59.832ZM244.283 64.5552H258.251V66.456H244.283V64.5552ZM249.237 56.808H251.253V65.5344H249.237V56.808ZM256.869 57.4704L258.885 58.0464C257.445 61.6176 255.554 64.7472 253.211 67.4352C250.888 70.1232 248.219 72.3216 245.205 74.0304C245.109 73.896 244.965 73.7232 244.773 73.512C244.6 73.3008 244.408 73.0992 244.197 72.9072C244.005 72.696 243.832 72.5232 243.679 72.3888C246.693 70.8528 249.314 68.808 251.541 66.2544C253.787 63.7008 255.563 60.7728 256.869 57.4704ZM250.389 72.4752H252.405V81C252.405 81.5568 252.338 81.9792 252.203 82.2672C252.069 82.5744 251.8 82.8048 251.397 82.9584C250.994 83.112 250.475 83.208 249.842 83.2464C249.208 83.2848 248.431 83.304 247.509 83.304C247.471 83.016 247.384 82.6896 247.25 82.3248C247.135 81.9792 247 81.672 246.847 81.4032C247.557 81.4224 248.191 81.432 248.747 81.432C249.304 81.432 249.688 81.4224 249.899 81.4032C250.091 81.4032 250.216 81.3648 250.274 81.288C250.351 81.2304 250.389 81.1248 250.389 80.9712V72.4752ZM254.853 68.5872H255.314L255.717 68.472L256.955 69.3936C256.283 70.2384 255.487 71.0736 254.565 71.8992C253.663 72.7248 252.789 73.416 251.944 73.9728C251.81 73.8 251.627 73.608 251.397 73.3968C251.167 73.1664 250.975 72.984 250.821 72.8496C251.32 72.5232 251.819 72.1392 252.319 71.6976C252.837 71.2368 253.317 70.7664 253.759 70.2864C254.2 69.8064 254.565 69.3552 254.853 68.9328V68.5872ZM244.139 75.6432C245.311 75.5472 246.664 75.4224 248.2 75.2688C249.755 75.1152 251.397 74.952 253.125 74.7792C254.872 74.5872 256.61 74.4048 258.338 74.232V76.104C256.687 76.296 255.016 76.488 253.327 76.68C251.637 76.8528 250.034 77.0256 248.517 77.1984C247 77.352 245.627 77.496 244.399 77.6304L244.139 75.6432ZM260.498 62.1648H270.751V64.1808H260.498V62.1648ZM261.247 56.808L263.435 57.1536C263.109 58.9584 262.696 60.7056 262.197 62.3952C261.698 64.0848 261.122 65.6688 260.469 67.1472C259.835 68.6064 259.115 69.8832 258.309 70.9776C258.194 70.8432 258.031 70.68 257.819 70.488C257.608 70.296 257.378 70.1136 257.128 69.9408C256.898 69.7488 256.696 69.6048 256.523 69.5088C257.311 68.5104 258.002 67.3392 258.597 65.9952C259.211 64.632 259.739 63.1728 260.181 61.6176C260.623 60.0432 260.978 58.44 261.247 56.808ZM266.776 63.288L268.994 63.5184C268.533 66.8208 267.842 69.7392 266.92 72.2736C266.018 74.7888 264.789 76.9584 263.234 78.7824C261.698 80.6064 259.72 82.1424 257.301 83.3904C257.224 83.2176 257.109 83.0064 256.955 82.7568C256.802 82.5072 256.639 82.2576 256.466 82.008C256.312 81.7776 256.159 81.5952 256.005 81.4608C258.29 80.3856 260.152 79.0128 261.592 77.3424C263.032 75.672 264.155 73.6752 264.962 71.352C265.787 69.0096 266.392 66.3216 266.776 63.288ZM261.592 63.8928C262.015 66.5424 262.61 69.0288 263.378 71.352C264.165 73.6752 265.173 75.7104 266.402 77.4576C267.65 79.1856 269.176 80.5296 270.981 81.4896C270.808 81.624 270.616 81.7968 270.405 82.008C270.213 82.2192 270.031 82.44 269.858 82.6704C269.685 82.92 269.541 83.1408 269.426 83.3328C267.563 82.2 265.989 80.7024 264.703 78.84C263.416 76.9584 262.37 74.7792 261.563 72.3024C260.757 69.8256 260.114 67.128 259.634 64.2096L261.592 63.8928ZM282.069 69.0192H297.88V70.8336H284.229V83.304H282.069V69.0192ZM297.131 69.0192H299.32V81C299.32 81.576 299.224 82.0176 299.032 82.3248C298.859 82.632 298.552 82.8528 298.111 82.9872C297.65 83.1408 297.035 83.2272 296.267 83.2464C295.499 83.2848 294.539 83.304 293.387 83.304C293.33 83.0352 293.234 82.728 293.099 82.3824C292.965 82.056 292.821 81.768 292.667 81.5184C293.243 81.5376 293.791 81.5472 294.309 81.5472C294.827 81.5472 295.288 81.5376 295.691 81.5184C296.095 81.5184 296.373 81.5184 296.527 81.5184C296.757 81.5184 296.911 81.4704 296.987 81.3744C297.083 81.2976 297.131 81.1632 297.131 80.9712V69.0192ZM283.336 73.0512H298.024V74.664H283.336V73.0512ZM277.951 59.6304H303.295V61.56H277.951V59.6304ZM285.957 60.7824L288.29 61.4736C287.675 62.3568 286.994 63.2592 286.245 64.1808C285.496 65.1024 284.815 65.8896 284.2 66.5424L282.472 65.88C282.856 65.4192 283.259 64.8912 283.682 64.296C284.123 63.7008 284.536 63.096 284.92 62.4816C285.323 61.8672 285.669 61.3008 285.957 60.7824ZM293.963 62.6256L295.691 61.5024C296.536 62.0592 297.419 62.6832 298.341 63.3744C299.282 64.0464 300.165 64.728 300.991 65.4192C301.816 66.1104 302.488 66.7344 303.007 67.2912L301.192 68.5872C300.712 68.0112 300.069 67.3776 299.263 66.6864C298.456 65.976 297.592 65.2656 296.671 64.5552C295.749 63.8448 294.847 63.2016 293.963 62.6256ZM279.074 65.2176C280.36 65.2176 281.81 65.208 283.423 65.1888C285.055 65.1504 286.792 65.1216 288.635 65.1024C290.479 65.064 292.37 65.0256 294.309 64.9872C296.267 64.9488 298.207 64.9104 300.127 64.872L300.011 66.6576C297.496 66.7344 294.971 66.8112 292.437 66.888C289.903 66.9648 287.493 67.032 285.208 67.0896C282.923 67.1472 280.907 67.1952 279.16 67.2336L279.074 65.2176ZM283.336 76.8816H297.938V78.4944H283.336V76.8816ZM289.442 56.7792H291.659V60.552H289.442V56.7792Z" fill="#464646"/>
</svg>
