<svg width="355" height="26" viewBox="0 0 355 26" fill="none" xmlns="http://www.w3.org/2000/svg">
<rect y="8" width="10" height="10" rx="5" fill="#343333"/>
<rect x="17" y="8" width="10" height="10" rx="5" fill="#343333"/>
<rect x="34" y="8" width="10" height="10" rx="5" fill="#343333"/>
<rect x="51" y="8" width="10" height="10" rx="5" fill="#343333"/>
<rect x="68" y="8" width="10" height="10" rx="5" fill="#343333"/>
<rect x="85" y="8" width="10" height="10" rx="5" fill="#343333"/>
<rect x="102" y="8" width="10" height="10" rx="5" fill="#343333"/>
<rect x="119" y="8" width="10" height="10" rx="5" fill="#343333"/>
<rect x="136" y="8" width="10" height="10" rx="5" fill="#343333"/>
<rect x="153" y="8" width="10" height="10" rx="5" fill="#343333"/>
<rect x="170" y="8" width="10" height="10" rx="5" fill="#343333"/>
<rect x="187" y="8" width="10" height="10" rx="5" fill="#343333"/>
<rect x="204" y="8" width="10" height="10" rx="5" fill="#343333"/>
<rect x="221" y="8" width="10" height="10" rx="5" fill="#343333"/>
<rect x="238" y="8" width="10" height="10" rx="5" fill="#343333"/>
<rect x="255" y="8" width="10" height="10" rx="5" fill="#343333"/>
<rect x="272" y="8" width="10" height="10" rx="5" fill="#343333"/>
<rect x="289" y="8" width="10" height="10" rx="5" fill="#343333"/>
<rect x="306" y="8" width="10" height="10" rx="5" fill="#343333"/>
<rect x="323" y="8" width="10" height="10" rx="5" fill="#343333"/>
<rect x="340" y="8" width="10" height="10" rx="5" fill="#343333"/>
</svg>
