<svg width="76" height="60" viewBox="0 0 76 60" fill="none" xmlns="http://www.w3.org/2000/svg">
<path d="M75.6621 11.25V45C75.6621 47.6625 74.2371 50.1 71.9121 51.45V57.1875C71.9121 58.725 70.6371 60 69.0996 60H67.2246C65.6871 60 64.4121 58.725 64.4121 57.1875V52.5H38.1621V57.1875C38.1621 58.725 36.8871 60 35.3496 60H33.4746C31.9371 60 30.6621 58.725 30.6621 57.1875V51.45C28.3746 50.1 26.9121 47.6625 26.9121 45V11.25C26.9121 0 38.1621 0 51.2871 0C64.4121 0 75.6621 0 75.6621 11.25ZM41.9121 41.25C41.9121 39.1875 40.2246 37.5 38.1621 37.5C36.0996 37.5 34.4121 39.1875 34.4121 41.25C34.4121 43.3125 36.0996 45 38.1621 45C40.2246 45 41.9121 43.3125 41.9121 41.25ZM68.1621 41.25C68.1621 39.1875 66.4746 37.5 64.4121 37.5C62.3496 37.5 60.6621 39.1875 60.6621 41.25C60.6621 43.3125 62.3496 45 64.4121 45C66.4746 45 68.1621 43.3125 68.1621 41.25ZM68.1621 11.25H34.4121V26.25H68.1621V11.25ZM19.4121 20.625C19.2996 15.45 15.0246 11.25 9.84957 11.4375C8.61835 11.4619 7.404 11.7286 6.27588 12.2224C5.14777 12.7162 4.12799 13.4274 3.2748 14.3154C2.42161 15.2034 1.75174 16.2508 1.30344 17.3978C0.855138 18.5447 0.637198 19.7688 0.662068 21C0.711044 23.127 1.47917 25.1746 2.84119 26.8091C4.20321 28.4435 6.07878 29.5683 8.16207 30V60H11.9121V30C16.3371 29.1 19.4121 25.1625 19.4121 20.625Z" fill="#464646"/>
</svg>
