<svg width="26" height="19" viewBox="0 0 26 19" fill="none" xmlns="http://www.w3.org/2000/svg">
<path fill-rule="evenodd" clip-rule="evenodd" d="M3.79316 0.498047C2.94618 0.498047 2.13388 0.834509 1.53498 1.43342C0.936072 2.03232 0.599609 2.84461 0.599609 3.6916V15.3045C0.599609 16.1515 0.936072 16.9638 1.53498 17.5627C2.13388 18.1616 2.94618 18.498 3.79316 18.498H22.3738C23.2208 18.498 24.0331 18.1616 24.632 17.5627C25.2309 16.9638 25.5674 16.1515 25.5674 15.3045V3.6916C25.5674 2.84461 25.2309 2.03232 24.632 1.43342C24.0331 0.834509 23.2208 0.498047 22.3738 0.498047H3.79316ZM7.77638 5.30114C7.58707 5.17761 7.35715 5.13251 7.1352 5.17539C6.91325 5.21827 6.71666 5.34576 6.58699 5.53092C6.45732 5.71609 6.40471 5.94441 6.4403 6.16764C6.47588 6.39088 6.59686 6.59154 6.77767 6.72721L12.5841 10.7917C12.7305 10.8942 12.9048 10.9491 13.0835 10.9491C13.2621 10.9491 13.4365 10.8942 13.5828 10.7917L19.3893 6.72721C19.4871 6.66339 19.5711 6.58055 19.6362 6.48363C19.7013 6.38671 19.7463 6.27767 19.7685 6.16301C19.7906 6.04835 19.7895 5.93041 19.7651 5.8162C19.7408 5.70199 19.6937 5.59384 19.6267 5.49818C19.5597 5.40253 19.4742 5.32132 19.3752 5.25939C19.2762 5.19746 19.1657 5.15608 19.0504 5.13769C18.9351 5.11931 18.8172 5.12431 18.7039 5.15239C18.5905 5.18047 18.484 5.23105 18.3906 5.30114L13.0835 9.01611L7.77638 5.30114Z" fill="#464646"/>
</svg>
