<svg width="25" height="26" viewBox="0 0 25 26" fill="none" xmlns="http://www.w3.org/2000/svg">
<path d="M13.2524 24.8861L13.2403 24.8883L13.1622 24.9268L13.1402 24.9312L13.1248 24.9268L13.0467 24.8883C13.0349 24.8846 13.0261 24.8864 13.0203 24.8938L13.0159 24.9048L12.9972 25.3756L13.0027 25.3976L13.0137 25.412L13.1281 25.4934L13.1446 25.4978L13.1578 25.4934L13.2722 25.412L13.2854 25.3943L13.2898 25.3756L13.2711 24.9059C13.2682 24.8941 13.2619 24.8875 13.2524 24.8861ZM13.544 24.7617L13.5297 24.7639L13.3261 24.8662L13.3151 24.8772L13.3118 24.8894L13.3316 25.3624L13.3371 25.3756L13.3459 25.3833L13.5671 25.4857C13.581 25.4893 13.5916 25.4864 13.599 25.4769L13.6034 25.4615L13.566 24.7859C13.5623 24.7727 13.555 24.7647 13.544 24.7617ZM12.7573 24.7639C12.7525 24.761 12.7467 24.76 12.7411 24.7613C12.7356 24.7625 12.7307 24.7658 12.7276 24.7705L12.721 24.7859L12.6836 25.4615C12.6843 25.4747 12.6906 25.4835 12.7023 25.4879L12.7188 25.4857L12.9399 25.3833L12.9509 25.3745L12.9553 25.3624L12.974 24.8894L12.9707 24.8762L12.9597 24.8651L12.7573 24.7639Z" fill="#464646"/>
<path d="M12.5996 0.5C19.2272 0.5 24.5996 5.8724 24.5996 12.5C24.5996 19.1276 19.2272 24.5 12.5996 24.5C5.97201 24.5 0.599609 19.1276 0.599609 12.5C0.599609 5.8724 5.97201 0.5 12.5996 0.5ZM12.5996 5.3C12.2814 5.3 11.9761 5.42643 11.7511 5.65147C11.526 5.87652 11.3996 6.18174 11.3996 6.5V12.5C11.3997 12.8182 11.5262 13.1234 11.7512 13.3484L15.3512 16.9484C15.5775 17.167 15.8807 17.2879 16.1953 17.2852C16.5099 17.2825 16.8109 17.1563 17.0334 16.9338C17.2559 16.7113 17.3821 16.4103 17.3848 16.0957C17.3876 15.781 17.2666 15.4779 17.048 15.2516L13.7996 12.0032V6.5C13.7996 6.18174 13.6732 5.87652 13.4481 5.65147C13.2231 5.42643 12.9179 5.3 12.5996 5.3Z" fill="#464646"/>
</svg>
