<svg width="41" height="43" viewBox="0 0 41 43" fill="none" xmlns="http://www.w3.org/2000/svg">
<path d="M14.5366 25.1536C14.7565 24.9185 14.9802 24.691 15.2229 24.4825C15.9244 23.8758 17.7521 22.4614 18.7607 23.0226C19.356 23.3525 19.2877 24.4938 19.0792 24.9716C18.5559 26.1509 17.1947 27.1595 16.368 28.1454C15.7158 28.9303 14.9272 29.6317 14.2181 30.3636C13.073 31.539 11.9847 32.8624 10.7486 33.9393L0.863291 42.5543L0.0708008 41.7883L8.37868 31.6338C9.94091 30.0223 11.5031 28.407 13.0692 26.7955C13.5697 26.276 14.0361 25.692 14.5366 25.1536Z" fill="#78A3AD"/>
<path d="M25.0101 31.9802C33.8412 31.9802 41.0002 24.8212 41.0002 15.9901C41.0002 7.15901 33.8412 0 25.0101 0C16.179 0 9.02002 7.15901 9.02002 15.9901C9.02002 24.8212 16.179 31.9802 25.0101 31.9802Z" fill="#FCC21B"/>
<path d="M24.1715 9.18272C24.1715 11.7194 22.1163 13.7746 19.5758 13.7746C17.0391 13.7746 14.9839 11.7194 14.9839 9.18272C14.9839 6.64599 17.0391 4.59083 19.5758 4.59083C22.1163 4.58703 24.1715 6.64599 24.1715 9.18272ZM35.8199 13.7443C34.8758 14.4078 34.8303 16.0649 34.5573 17.1038C32.9837 23.1063 27.6941 27.6678 21.3807 27.6678C20.4441 27.6678 19.9322 28.0167 20.9105 28.5589C22.0556 29.1884 23.7468 29.2566 25.0095 29.2566C26.128 29.2566 27.2466 29.1163 28.3311 28.8357C31.5883 27.9977 34.4473 25.8971 36.2446 23.0532C37.1471 21.6199 37.7727 20.0159 38.0723 18.3475C38.2277 17.4868 38.1974 16.7095 38.1936 15.8563C38.186 15.0487 38.1443 14.0628 37.4125 13.5509C36.9499 13.2362 36.2446 13.4485 35.8199 13.7443Z" fill="white"/>
</svg>
