<svg width="153" height="143" viewBox="0 0 153 143" fill="none" xmlns="http://www.w3.org/2000/svg">
<path d="M0.430056 73.726C-3.73319 36.9574 23.3562 13.2883 37.4211 6.82288C43.3285 3.59018 62.26 -1.86328 89.0398 1.62243C115.82 5.10813 135.829 21.6746 140.94 30.8574C154.583 50.6753 158.156 95.7768 142.768 120.53C131.235 139.083 66.5835 144.203 51.9081 142.035C31.9357 139.083 5.63412 119.687 0.430056 73.726Z" fill="#F29D6F"/>
<path d="M24.3135 41.5667C27.1768 38.8336 28.6519 36.5234 29.0315 35.71C29.1399 35.71 29.4545 35.775 29.8449 36.0353C30.2354 36.2956 36.1897 40.8075 39.1181 43.0309C39.2266 43.4648 39.3784 44.4626 39.1181 44.9832C38.7928 45.6339 36.1897 50.1892 35.8644 50.3519C35.539 50.5146 35.0509 51.0026 34.0748 50.1892C32.513 46.9354 27.2419 43.6274 24.8016 42.3802C24.5846 42.3259 24.1834 42.0873 24.3135 41.5667Z" fill="white"/>
<path d="M19.9307 59.9509C22.1433 57.6082 23.1302 55.3957 23.3472 54.5822C23.3472 54.3111 23.64 53.9965 24.8114 54.9076C30.3427 58.6494 34.41 62.0659 34.5726 62.2286C34.7353 62.3912 35.0607 63.2047 34.898 64.6689C34.7679 65.8402 33 68.5192 32.1323 69.7122C31.6985 70.3087 30.6356 71.1439 29.8547 69.7122C27.9024 66.7187 22.7506 63.042 20.4188 61.5778C20.0392 61.4151 19.4101 60.862 19.9307 59.9509Z" fill="white"/>
<path d="M20.4188 93.302C27.0564 86.5342 32.0781 76.5993 33.7592 72.4779C34.3821 71.0463 35.3202 71.556 35.7115 71.9898C36.5249 72.9117 38.1843 74.9182 38.3145 75.569C38.3145 85.1676 28.2278 96.3931 28.0651 96.5558C27.9024 96.7184 23.3472 101.762 21.2322 97.6946C21.0695 97.3692 19.28 94.1154 20.4188 93.302Z" fill="white"/>
<path d="M39.1279 54.9076C44.2038 49.8317 46.1235 42.706 46.4489 39.7776C46.8393 38.0856 48.5638 38.0965 49.3773 38.3134C50.6245 38.8557 53.1842 40.1355 53.4445 40.9164C53.6072 42.2179 52.143 45.6344 52.3056 45.7971C52.4358 45.9272 55.939 45.8513 57.6744 45.7971C57.837 45.7971 58.195 45.6994 58.3251 45.309C58.6505 40.9164 58.3251 38.4761 58.3251 37.6627C58.3251 37.0119 59.1928 36.7408 59.6266 36.6865H64.6699C65.3207 36.6865 66.0257 37.3373 66.2968 37.6627V45.6344H78.3357C79.3769 45.8947 79.5288 46.719 79.4746 47.0986V51.6538C79.4746 52.1744 79.2576 52.413 79.1492 52.4673C78.6069 52.5215 77.0668 52.5974 75.2447 52.4673C69.876 52.1419 67.4356 52.4673 66.7849 52.4673C66.2643 52.4673 66.0257 52.7926 65.9714 52.9553V62.3912L71.1775 62.5539C66.1884 64.452 55.7872 68.3456 54.0952 68.7361C52.4033 68.8662 46.9912 69.1157 44.4966 69.2242C42.219 69.0615 40.5921 69.8749 40.4294 66.9465C40.2667 60.9271 40.2667 61.5778 41.8936 62.2286C42.5444 62.3912 42.0563 62.3912 43.3578 62.5539C48.2384 62.7166 58.1624 62.7166 58.8132 62.2286C59.0735 60.927 58.9216 55.721 58.8132 53.2807C58.9216 53.118 58.9108 52.7276 57.9997 52.4673C57.0236 52.4673 53.1191 52.3046 50.028 52.7926C45.7981 60.439 44.0086 62.5539 41.8936 59.9509C39.7787 57.3479 37.501 56.5345 39.1279 54.9076Z" fill="white"/>
<path fill-rule="evenodd" clip-rule="evenodd" d="M56.5986 122.821V108.668C56.7613 108.342 57.0867 107.854 58.2255 107.691C74.6999 108.592 75.29 108.17 75.7039 107.873C75.8131 107.795 75.9101 107.725 76.2839 107.691C77.6402 107.568 78.8095 107.632 79.5088 107.67C79.7321 107.682 79.9075 107.691 80.0257 107.691C80.5138 107.691 81.978 108.993 81.978 109.806C81.978 109.966 81.9717 110.429 81.9628 111.08C81.9266 113.741 81.8473 119.562 81.978 120.869C82.1407 122.496 80.6765 123.309 80.5138 123.309C80.4959 123.309 80.41 123.311 80.2683 123.315C79.1207 123.341 74.2622 123.454 71.0779 123.309C67.4987 123.147 66.0345 123.147 64.0823 123.472C62.13 123.798 58.0628 123.798 57.9001 123.798C57.7374 123.798 56.5986 123.635 56.5986 122.821ZM63.5942 113.548C63.7569 114.524 63.9847 116.737 63.5942 117.778C63.4641 118.169 64.0823 118.158 64.4077 118.103C66.3057 117.995 71.0453 117.843 74.8197 118.103C74.966 117.957 74.9478 117.646 74.9131 117.053C74.8706 116.326 74.8033 115.176 74.9824 113.386C74.9824 113.331 74.9173 113.223 74.657 113.223C74.6117 113.223 74.4054 113.229 74.079 113.239C72.0621 113.301 65.4599 113.503 63.9196 113.223C63.5942 113.386 63.54 113.44 63.5942 113.548Z" fill="white"/>
<path d="M77.9221 71.1594L81.0132 68.3937C81.5338 67.743 82.3147 67.9057 82.64 68.0684C84.1042 68.5564 86.3819 71.4848 86.8699 72.1356C87.1953 72.4609 87.1953 73.5998 86.8699 74.2505C88.6595 74.0878 101.512 74.5759 102.325 74.5759C103.464 74.9013 103.789 75.3893 103.952 75.7147C104.115 76.0401 104.115 80.5954 103.952 81.4088C103.822 82.0595 103.03 82.1138 102.651 82.0595C100.698 81.6691 99.3969 81.4088 97.9327 81.4088C82.3147 81.4088 82.4774 81.5715 83.6162 82.5476C87.6834 84.0118 97.6073 87.5909 98.5835 87.9163C99.5596 88.2417 101.024 89.8686 100.373 91.4955C99.8524 92.797 97.5531 94.5323 96.4685 95.2373L97.4447 96.2134C97.4989 96.3219 97.8351 96.5713 98.7462 96.7015C99.885 96.8642 105.416 96.7015 105.904 96.7015C106.295 96.7015 106.501 97.1353 106.555 97.3522V102.558C106.555 102.819 106.338 103.101 106.23 103.209H97.282C96.8915 103.209 96.7939 103.534 96.7939 103.697C96.9024 107.764 97.0542 117.46 96.7939 123.708C96.4685 131.517 83.4535 130.378 82.8027 130.215C82.2821 130.085 82.152 129.727 82.152 129.564V124.196C82.152 123.935 82.5858 123.762 82.8027 123.708H87.5207C87.9003 123.708 88.7246 123.447 88.9849 122.406C89.5055 117.851 89.2018 108.035 88.9849 103.697C89.0391 103.534 88.9849 103.209 88.3341 103.209C85.7311 103.209 50.2651 103.372 49.1263 103.209C48.2152 103.079 48.0959 102.721 48.1502 102.558V97.6776C48.3128 97.5149 47.6621 97.5149 49.289 96.5388C61.3119 97.58 80.654 96.9726 88.8222 96.5388C90.1237 94.2612 90.4491 94.2612 91.4252 93.1223C91.0347 92.6017 83.7789 89.8686 80.1997 88.5671C79.9286 88.3501 79.2561 88.0465 78.7355 88.5671C75.0913 91.4304 66.8051 94.7492 63.1175 96.0507C61.6533 96.105 58.4971 96.1809 57.5861 96.0507C54.2022 91.105 56.0676 89.7601 57.4234 89.7059C66.5339 87.9163 72.8788 83.361 72.0653 83.361C70.4384 83.8491 62.2498 83.9576 58.2368 83.8491C57.803 83.5237 57.1956 82.8079 58.2368 82.5476C64.907 80.758 73.6922 74.9013 74.0176 74.5759C74.3429 74.2505 75.1564 74.2505 75.3191 74.2505H77.7594C78.0305 74.3047 78.5078 74.2505 78.2475 73.5998C77.434 71.6475 77.2713 71.6475 77.9221 71.1594Z" fill="white"/>
<path d="M76.2713 41.0914L126.158 24.2229C131.377 22.5361 129.228 25.4497 128.921 27.1365C126.925 32.3504 115.413 61.0268 113.418 62.4069C108.352 59.1866 107.124 57.6531 105.589 55.8129C103.287 52.8993 98.2216 50.4457 96.9936 49.9856C96.0113 49.6176 96.482 49.1166 96.8401 48.9122C105.334 42.6248 123.511 29.0551 125.083 27.5966C127.232 25.603 125.501 26.7418 124.93 27.1365C114.646 34.2417 94.5376 46.6119 93.1561 46.9186C91.6212 45.3851 89.7792 44.7717 88.7047 44.6184C77.8986 43.3916 75.862 41.8581 76.2713 41.0914Z" fill="#FFF4E3" stroke="black" stroke-opacity="0.2"/>
<path d="M87.1369 52.27C88.4384 48.1052 89.6247 47.3385 90.1127 47.1758C90.6008 47.0131 90.8462 46.9664 92.6683 48.5282C95.5967 50.8058 98.037 50.8058 96.0848 52.5954C91.3668 56.3372 89.2517 58.7776 84.0457 63.3328C79.4904 68.9293 70.217 72.4434 66.3125 73.9075C20.7598 97.172 38.6555 120.111 46.6272 118.809C47.7904 118.62 48.6337 118.647 48.9048 118.647C49.9894 119.026 51.1825 119.558 50.5317 119.948C49.881 119.948 49.5014 120.057 49.3929 120.111C47.9287 120.274 44.4798 120.436 42.3974 119.786C16.2046 112.465 38.3302 81.3912 52.9721 74.721C67.6141 68.0508 63.8723 71.6299 74.2844 65.6105C84.6964 59.591 85.51 57.476 87.1369 52.27Z" fill="#FFF9F0" stroke="black" stroke-opacity="0.2"/>
</svg>
