<svg width="23" height="24" viewBox="0 0 23 24" fill="none" xmlns="http://www.w3.org/2000/svg">
<path d="M15.7488 1.74535C14.7063 0.619818 13.2502 0 11.6431 0C10.0274 0 8.56651 0.616068 7.52884 1.73463C6.47991 2.86552 5.96885 4.40247 6.08885 6.06211C6.3267 9.33637 8.81829 11.9999 11.6431 11.9999C14.4679 11.9999 16.9552 9.33691 17.1968 6.06318C17.3184 4.41855 16.8041 2.8848 15.7488 1.74535ZM21.0716 23.9999H2.21458C1.96776 24.0031 1.72333 23.9512 1.49907 23.8481C1.27481 23.7449 1.07636 23.5931 0.918161 23.4036C0.569949 22.9874 0.429593 22.419 0.53352 21.8442C0.985661 19.336 2.39672 17.229 4.61457 15.7499C6.58491 14.4369 9.08079 13.7142 11.6431 13.7142C14.2054 13.7142 16.7013 14.4374 18.6716 15.7499C20.8895 17.2285 22.3005 19.3354 22.7527 21.8436C22.8566 22.4184 22.7162 22.9868 22.368 23.4031C22.2099 23.5927 22.0115 23.7446 21.7872 23.8478C21.5629 23.9511 21.3185 24.003 21.0716 23.9999Z" fill="#FCC21B"/>
</svg>
