<svg width="26" height="24" viewBox="0 0 26 24" fill="none" xmlns="http://www.w3.org/2000/svg">
<path d="M20.9936 10.418C20.9933 10.5936 20.9233 10.7619 20.799 10.8859C20.6748 11.0099 20.5064 11.0796 20.3308 11.0796H18.4886V12.2615H20.3321C20.4213 12.2576 20.5104 12.2718 20.594 12.3033C20.6775 12.3347 20.7539 12.3828 20.8184 12.4445C20.8829 12.5063 20.9342 12.5805 20.9693 12.6626C21.0044 12.7447 21.0225 12.8331 21.0225 12.9224C21.0225 13.0117 21.0044 13.1001 20.9693 13.1822C20.9342 13.2643 20.8829 13.3385 20.8184 13.4002C20.7539 13.462 20.6775 13.5101 20.594 13.5415C20.5104 13.573 20.4213 13.5872 20.3321 13.5833H17.8258C17.6514 13.582 17.4845 13.5119 17.3613 13.3883C17.2382 13.2647 17.1688 13.0975 17.1681 12.923V7.91308C17.1681 7.55145 17.4642 7.25156 17.8296 7.25156H20.3346C20.503 7.26227 20.6609 7.33679 20.7762 7.45993C20.8916 7.58307 20.9556 7.74555 20.9553 7.91426C20.955 8.08298 20.8903 8.24522 20.7745 8.36791C20.6587 8.49061 20.5005 8.56453 20.3321 8.5746H18.4886V9.75652H20.3321C20.6975 9.75652 20.9936 10.0552 20.9936 10.418ZM15.8287 13.5493C15.7612 13.5715 15.6905 13.5821 15.6195 13.5808C15.5159 13.5825 15.4133 13.5597 15.3202 13.5142C15.2271 13.4686 15.1462 13.4016 15.084 13.3187L12.5185 9.83591V12.923C12.5059 13.0893 12.431 13.2448 12.3087 13.3582C12.1863 13.4716 12.0257 13.5346 11.8589 13.5346C11.6921 13.5346 11.5315 13.4716 11.4092 13.3582C11.2868 13.2448 11.2119 13.0893 11.1993 12.923V7.91308C11.1988 7.82672 11.2154 7.74111 11.2481 7.66118C11.2808 7.58124 11.329 7.50857 11.3898 7.44732C11.4507 7.38608 11.5231 7.33748 11.6029 7.30431C11.6826 7.27115 11.7681 7.25408 11.8545 7.25408C12.0586 7.25408 12.2476 7.36244 12.3736 7.51995L14.9592 11.0166V7.91308C14.9592 7.55145 15.2554 7.25156 15.6208 7.25156C15.9824 7.25156 16.2823 7.55145 16.2823 7.91308V12.923C16.2829 13.062 16.2393 13.1976 16.1577 13.3102C16.0762 13.4228 15.9609 13.5065 15.8287 13.5493ZM9.59146 13.5833C9.41677 13.5823 9.24953 13.5124 9.12613 13.3887C9.00272 13.2651 8.93312 13.0977 8.93245 12.923V7.91308C8.93245 7.55145 9.22856 7.25156 9.59398 7.25156C9.95813 7.25156 10.2542 7.55145 10.2542 7.91308V12.923C10.2532 13.0983 10.183 13.266 10.0589 13.3897C9.93471 13.5134 9.7667 13.583 9.59146 13.5833ZM7.66359 13.5833H5.16114C4.98642 13.5816 4.8193 13.5116 4.69563 13.3882C4.57196 13.2647 4.50159 13.0977 4.49962 12.923V7.91308C4.49962 7.55145 4.79951 7.25156 5.16114 7.25156C5.52655 7.25156 5.82267 7.55145 5.82267 7.91308V12.2602H7.66737C7.84282 12.2602 8.01108 12.3299 8.13514 12.454C8.2592 12.578 8.32889 12.7463 8.32889 12.9218C8.32889 13.0972 8.2592 13.2655 8.13514 13.3895C8.01108 13.5136 7.84282 13.5833 7.66737 13.5833M12.6004 0C5.65382 0 0 4.59034 0 10.229C0 15.2818 4.48324 19.5143 10.5378 20.3182C10.9473 20.4039 11.5067 20.5891 11.6478 20.9382C11.7739 21.2532 11.731 21.7421 11.6882 22.0722L11.5155 23.1432C11.4689 23.4582 11.2635 24.3882 12.6168 23.8199C13.9726 23.2541 19.8797 19.5382 22.5258 16.4965C24.3327 14.5119 25.1971 12.4807 25.1971 10.229C25.1971 4.59034 19.542 0 12.5967 0" fill="#464646"/>
</svg>
