<svg width="24" height="24" viewBox="0 0 24 24" fill="none" xmlns="http://www.w3.org/2000/svg">
<path d="M11.9999 0.150391C15.1427 0.150391 18.1565 1.39879 20.3788 3.62109C22.6011 5.8434 23.8495 8.85718 23.8495 12C23.8495 15.1428 22.6011 18.1566 20.3788 20.3789C18.1565 22.6012 15.1427 23.8496 11.9999 23.8496C8.85706 23.8496 5.84328 22.6012 3.62097 20.3789C1.39867 18.1566 0.150269 15.1428 0.150269 12C0.150269 8.85718 1.39867 5.8434 3.62097 3.62109C5.84328 1.39879 8.85706 0.150391 11.9999 0.150391ZM11.9999 14.8496C11.5623 14.8496 11.1423 15.0236 10.8329 15.333C10.5235 15.6424 10.3495 16.0624 10.3495 16.5C10.3495 16.9376 10.5235 17.3576 10.8329 17.667C11.1423 17.9764 11.5623 18.1504 11.9999 18.1504C12.4375 18.1504 12.8574 17.9764 13.1669 17.667C13.4763 17.3576 13.6503 16.9376 13.6503 16.5C13.6503 16.0624 13.4763 15.6424 13.1669 15.333C12.8574 15.0236 12.4375 14.8496 11.9999 14.8496ZM11.2499 5.84961C10.2155 5.84961 9.22346 6.2608 8.49207 6.99219C7.76067 7.72358 7.34949 8.71566 7.34949 9.75V9.90039H10.6503V9.75C10.6503 9.59087 10.7135 9.43869 10.826 9.32617C10.9386 9.21365 11.0907 9.15039 11.2499 9.15039H12.2186C12.3139 9.15043 12.4066 9.18208 12.4813 9.24121C12.556 9.30044 12.6089 9.38374 12.6307 9.47656C12.6524 9.56929 12.6419 9.66673 12.6014 9.75293C12.571 9.81768 12.5249 9.87337 12.4677 9.91504L12.4071 9.95215L10.4325 10.9385L10.3495 10.9805V13.6504H13.6503V13.0195L13.8837 12.9023C14.6333 12.5271 15.2346 11.9097 15.5897 11.1504C15.9448 10.391 16.0333 9.53366 15.8407 8.71777C15.6481 7.90185 15.1854 7.17475 14.5282 6.6543C13.871 6.13384 13.057 5.85007 12.2186 5.84961H11.2499Z" fill="#D26E49" stroke="white" stroke-width="0.3"/>
</svg>
