<svg width="44" height="60" viewBox="0 0 44 60" fill="none" xmlns="http://www.w3.org/2000/svg">
<path d="M21.7007 38.5623C20.2959 38.5649 18.9494 39.124 17.9558 40.1171C16.9622 41.1102 16.4025 42.4565 16.3992 43.8613V54.6985C16.3992 56.1045 16.9577 57.453 17.952 58.4472C18.9462 59.4414 20.2947 60 21.7007 60C23.1068 60 24.4552 59.4414 25.4495 58.4472C26.4437 57.453 27.0022 56.1045 27.0022 54.6985V54.5902V54.5952V43.8638C26.9996 42.4594 26.4409 41.1133 25.4483 40.1198C24.4557 39.1262 23.1101 38.5662 21.7057 38.5623H21.7007Z" fill="#464646"/>
<path d="M40.9396 6.62314H30.7368C29.5008 2.75398 25.9362 0 21.7272 0C17.5182 0 13.9562 2.75398 12.7378 6.55518L12.7202 6.62314H2.65077C1.94774 6.62314 1.27351 6.90242 0.776392 7.39954C0.279277 7.89665 0 8.57088 0 9.27391C0 9.97694 0.279277 10.6512 0.776392 11.1483C1.27351 11.6454 1.94774 11.9247 2.65077 11.9247H12.8536C13.5282 14.1878 14.9933 16.0405 16.9191 17.201L16.9594 17.2237C9.73207 19.4062 4.55137 25.9841 4.50605 33.7803V47.6962C4.51655 48.8522 4.98026 49.9579 5.79749 50.7756C6.61471 51.5933 7.72017 52.0577 8.87617 52.0688H12.4558V44.5168C12.4558 42.0218 13.447 39.629 15.2112 37.8648C16.9754 36.1006 19.3682 35.1095 21.8632 35.1095C24.3582 35.1095 26.7509 36.1006 28.5152 37.8648C30.2794 39.629 31.2705 42.0218 31.2705 44.5168V52.0688H34.8477C36.0051 52.0609 37.113 51.5978 37.9317 50.7795C38.7505 49.9613 39.2142 48.8537 39.2228 47.6962V33.9162C39.2212 30.2002 38.02 26.5839 35.798 23.6054C33.576 20.6268 30.4519 18.4451 26.8903 17.3848L26.7695 17.3546C28.7385 16.1806 30.1975 14.3131 30.8602 12.1185L30.8778 12.0531H41.0806C41.783 12.0511 42.4561 11.7712 42.9528 11.2745C43.4495 10.7778 43.7294 10.1047 43.7314 9.4023C43.7034 8.67391 43.4017 7.98289 42.8865 7.46723C42.3713 6.95158 41.6806 6.64925 40.9522 6.62063H40.9472L40.9396 6.62314ZM21.7272 14.7013C20.6787 14.7013 19.6537 14.3904 18.7819 13.8078C17.91 13.2253 17.2305 12.3973 16.8293 11.4286C16.428 10.4599 16.323 9.3939 16.5276 8.3655C16.7321 7.3371 17.2371 6.39246 17.9785 5.65103C18.7199 4.90959 19.6646 4.40467 20.693 4.20011C21.7214 3.99555 22.7873 4.10054 23.756 4.5018C24.7248 4.90306 25.5528 5.58257 26.1353 6.4544C26.7178 7.32624 27.0288 8.35123 27.0288 9.39978L27.0313 9.55082C27.0313 12.3954 24.7254 14.7013 21.8808 14.7013L21.7222 14.6988H21.7298L21.7272 14.7013Z" fill="#464646"/>
</svg>
