<svg width="52" height="60" viewBox="0 0 52 60" fill="none" xmlns="http://www.w3.org/2000/svg">
<path d="M0.896976 42.6316V12.6316C0.896976 9.84212 1.62119 7.61791 3.06961 5.95897C4.51803 4.30002 6.42539 3.03686 8.79171 2.1695C11.158 1.30213 13.8559 0.723181 16.8854 0.432654C19.9149 0.142128 23.0064 -0.00208254 26.1601 2.27186e-05C29.6338 2.27186e-05 32.9106 0.145286 35.9906 0.435812C39.0706 0.726338 41.7549 1.30529 44.0433 2.17265C46.3317 3.04002 48.1338 4.30318 49.4496 5.96213C50.7654 7.62107 51.4233 9.84423 51.4233 12.6316V42.6316C51.4233 45.7368 50.358 48.3558 48.2275 50.4884C46.097 52.6211 43.478 53.6863 40.3706 53.6842L45.1075 58.4211V60H38.7917L32.4759 53.6842H19.8443L13.5285 60H7.21276V58.4211L11.9496 53.6842C8.84434 53.6842 6.22539 52.619 4.09276 50.4884C1.96013 48.3579 0.894871 45.739 0.896976 42.6316ZM26.1601 6.31581C20.5812 6.31581 16.5022 6.64528 13.9233 7.30423C11.3443 7.96318 9.58118 8.68633 8.63381 9.4737H44.0022C43.2127 8.57897 41.5159 7.82949 38.9117 7.22528C36.3075 6.62107 32.057 6.31791 26.1601 6.31581ZM7.21276 25.2632H23.0022V15.7895H7.21276V25.2632ZM40.3706 31.579H7.21276H45.1075H40.3706ZM29.318 25.2632H45.1075V15.7895H29.318V25.2632ZM15.1075 44.2105C16.4759 44.2105 17.6075 43.7632 18.5022 42.8684C19.397 41.9737 19.8443 40.8421 19.8443 39.4737C19.8443 38.1053 19.397 36.9737 18.5022 36.079C17.6075 35.1842 16.4759 34.7369 15.1075 34.7369C13.7391 34.7369 12.6075 35.1842 11.7128 36.079C10.818 36.9737 10.3707 38.1053 10.3707 39.4737C10.3707 40.8421 10.818 41.9737 11.7128 42.8684C12.6075 43.7632 13.7391 44.2105 15.1075 44.2105ZM37.2127 44.2105C38.5812 44.2105 39.7127 43.7632 40.6075 42.8684C41.5022 41.9737 41.9496 40.8421 41.9496 39.4737C41.9496 38.1053 41.5022 36.9737 40.6075 36.079C39.7127 35.1842 38.5812 34.7369 37.2127 34.7369C35.8443 34.7369 34.7128 35.1842 33.818 36.079C32.9233 36.9737 32.4759 38.1053 32.4759 39.4737C32.4759 40.8421 32.9233 41.9737 33.818 42.8684C34.7128 43.7632 35.8443 44.2105 37.2127 44.2105ZM11.9496 47.3684H40.3706C41.7391 47.3684 42.8706 46.9211 43.7654 46.0263C44.6601 45.1316 45.1075 44 45.1075 42.6316V31.579H7.21276V42.6316C7.21276 44 7.66013 45.1316 8.55487 46.0263C9.4496 46.9211 10.5812 47.3684 11.9496 47.3684ZM26.1601 9.4737H44.0022H8.63381H26.1601Z" fill="#464646"/>
</svg>
