<svg width="23" height="25" viewBox="0 0 23 25" fill="none" xmlns="http://www.w3.org/2000/svg">
<path fill-rule="evenodd" clip-rule="evenodd" d="M12.4941 23.8841L12.4819 23.8863L12.4031 23.9251L12.381 23.9295L12.3655 23.9251L12.2867 23.8863C12.2749 23.8826 12.266 23.8844 12.2601 23.8918L12.2557 23.9029L12.2369 24.3774L12.2424 24.3996L12.2535 24.414L12.3688 24.496L12.3854 24.5005L12.3987 24.496L12.514 24.414L12.5273 24.3963L12.5318 24.3774L12.5129 23.904C12.5099 23.8922 12.5037 23.8856 12.4941 23.8841ZM12.7878 23.7588L12.7734 23.761L12.5683 23.8641L12.5572 23.8752L12.5539 23.8874L12.5739 24.3641L12.5794 24.3774L12.5883 24.3852L12.8111 24.4883C12.8252 24.492 12.8359 24.489 12.8433 24.4794L12.8477 24.4639L12.81 23.7832C12.8063 23.7699 12.7989 23.7618 12.7878 23.7588ZM11.9952 23.761C11.9903 23.7581 11.9845 23.7571 11.9789 23.7583C11.9733 23.7596 11.9684 23.7629 11.9652 23.7677L11.9586 23.7832L11.9209 24.4639C11.9216 24.4772 11.9279 24.4861 11.9397 24.4905L11.9564 24.4883L12.1792 24.3852L12.1903 24.3763L12.1947 24.3641L12.2136 23.8874L12.2102 23.8741L12.1992 23.863L11.9952 23.761Z" fill="#464646"/>
<path fill-rule="evenodd" clip-rule="evenodd" d="M16.8828 22.6374C15.2864 22.5786 10.7621 21.9534 6.02382 17.2162C1.28667 12.4779 0.662515 7.95475 0.602649 6.35723C0.513959 3.92268 2.37867 1.55799 4.53272 0.634504C4.79212 0.522496 5.07617 0.479851 5.35702 0.510754C5.63787 0.541657 5.90586 0.645046 6.13469 0.810775C7.90849 2.10343 9.13241 4.05905 10.1834 5.59671C10.4146 5.93454 10.5135 6.34564 10.4612 6.75167C10.4088 7.1577 10.2089 7.53029 9.89958 7.79844L7.73665 9.40483C7.63215 9.48029 7.5586 9.59112 7.52964 9.71672C7.50069 9.84232 7.51831 9.97416 7.57923 10.0877C8.06924 10.978 8.94062 12.3039 9.93838 13.3017C10.9361 14.2994 12.3252 15.2284 13.2776 15.7739C13.397 15.8409 13.5375 15.8596 13.6703 15.8262C13.8031 15.7928 13.918 15.7098 13.9915 15.5943L15.3995 13.4513C15.6583 13.1075 16.0402 12.8771 16.465 12.8085C16.8899 12.7399 17.3249 12.8384 17.6788 13.0833C19.2386 14.1631 21.059 15.3659 22.3916 17.0721C22.5707 17.3026 22.6847 17.577 22.7216 17.8666C22.7584 18.1562 22.7168 18.4504 22.6011 18.7184C21.6732 20.8835 19.3251 22.7272 16.8828 22.6374Z" fill="#464646"/>
</svg>
