<svg width="84" height="84" viewBox="0 0 84 84" fill="none" xmlns="http://www.w3.org/2000/svg">
<g clip-path="url(#clip0_209_15)">
<path d="M60.6663 65.333H23.333C19.62 65.333 16.059 66.808 13.4335 69.4335C10.808 72.059 9.33301 75.62 9.33301 79.333V83.9997H74.6663V79.333C74.6663 71.6003 68.4013 65.333 60.6663 65.333Z" fill="#292F33"/>
<path d="M18.8614 77.7959C19.4471 77.7959 19.7971 84.0002 19.7971 84.0002H17.5664C17.5664 84.0002 18.0167 77.7959 18.8614 77.7959ZM25.8614 77.7959C26.4471 77.7959 26.7971 84.0002 26.7971 84.0002H24.5641C24.5664 84.0002 25.0167 77.7959 25.8614 77.7959ZM58.1687 77.7959C57.5831 77.7959 57.2331 84.0002 57.2331 84.0002H59.4637C59.4614 84.0002 59.0111 77.7959 58.1687 77.7959ZM65.1687 77.7959C64.5831 77.7959 64.2331 84.0002 64.2331 84.0002H66.4637C66.4614 84.0002 66.0111 77.7959 65.1687 77.7959Z" fill="#66757F"/>
<path d="M28.8867 65.333C28.8867 65.333 29.4467 67.2883 30.6834 69.932C32.6131 74.0527 36.2041 79.858 42.0001 82.6277C47.7984 79.858 51.3894 74.0527 53.3167 69.932C54.5534 67.2883 55.1134 65.333 55.1134 65.333H28.8867Z" fill="#77B255"/>
<path d="M42.0001 74.6663C47.4344 74.6663 51.0581 72.2863 53.3167 69.932C54.5534 67.2883 55.1134 65.333 55.1134 65.333H28.8867C28.8867 65.333 29.4467 67.2883 30.6834 69.932C32.9421 72.2863 36.5657 74.6663 42.0001 74.6663Z" fill="#5C913B"/>
<path d="M31.8256 65.5808C31.8256 67.6668 37.3322 70.2311 41.9989 70.2311C46.6656 70.2311 52.1699 67.6668 52.1699 65.5831V56.6768H31.8232L31.8256 65.5808Z" fill="#F7DECE"/>
<path d="M31.808 60.6037C34.6453 63.8097 38.164 64.6777 41.9907 64.6777C45.8173 64.6777 49.3313 63.8073 52.171 60.6037V52.458H31.8057V60.6037H31.808Z" fill="#EEC2AD"/>
<path d="M26.7024 37.1838C26.7024 40.5625 24.9897 43.3018 22.878 43.3018C20.7664 43.3018 19.0537 40.5625 19.0537 37.1838C19.0537 33.8051 20.7664 31.0635 22.878 31.0635C24.9897 31.0611 26.7024 33.8028 26.7024 37.1838ZM64.9434 37.1838C64.9434 40.5625 63.233 43.3018 61.119 43.3018C59.0074 43.3018 57.2947 40.5625 57.2947 37.1838C57.2947 33.8051 59.005 31.0635 61.119 31.0635C63.233 31.0611 64.9434 33.8028 64.9434 37.1838Z" fill="#F7DECE"/>
<path d="M22.1123 39.5707C22.1123 26.5297 31.0163 15.9551 41.9993 15.9551C52.9823 15.9551 61.884 26.5297 61.884 39.5707C61.884 52.6117 52.9823 63.1864 41.9993 63.1864C31.0163 63.1864 22.1123 52.6141 22.1123 39.5707Z" fill="#F7DECE"/>
<path d="M41.9989 55.5377C35.5729 55.5377 33.5989 53.8927 33.2699 53.559C32.976 53.2799 32.805 52.8955 32.7945 52.4903C32.784 52.0851 32.9349 51.6923 33.2139 51.3983C33.493 51.1044 33.8775 50.9334 34.2827 50.9229C34.6879 50.9124 35.0807 51.0632 35.3746 51.3423C35.4959 51.4287 37.0569 52.4787 41.9989 52.4787C47.1323 52.4787 48.6163 51.347 48.6303 51.3353C48.7716 51.1961 48.9392 51.0865 49.1233 51.0128C49.3075 50.9391 49.5045 50.9028 49.7028 50.9061C49.9011 50.9093 50.0968 50.9521 50.2784 51.0318C50.46 51.1115 50.624 51.2266 50.7606 51.3703C51.0427 51.6668 51.1973 52.0621 51.1912 52.4713C51.1851 52.8806 51.0188 53.2711 50.7279 53.559C50.3989 53.8927 48.4249 55.5377 41.9989 55.5377ZM43.7489 46.083H40.2489C39.2853 46.083 38.4989 45.2967 38.4989 44.333C38.4989 43.3693 39.2853 42.583 40.2489 42.583H43.7489C44.7126 42.583 45.4989 43.3693 45.4989 44.333C45.4989 45.2967 44.7126 46.083 43.7489 46.083Z" fill="#C1694F"/>
<path d="M32.6663 39.667C31.383 39.667 30.333 38.617 30.333 37.3337V35.0003C30.333 33.717 31.383 32.667 32.6663 32.667C33.9497 32.667 34.9997 33.717 34.9997 35.0003V37.3337C34.9997 38.617 33.9497 39.667 32.6663 39.667ZM51.333 39.667C50.0497 39.667 48.9997 38.617 48.9997 37.3337V35.0003C48.9997 33.717 50.0497 32.667 51.333 32.667C52.6163 32.667 53.6663 33.717 53.6663 35.0003V37.3337C53.6663 38.617 52.6163 39.667 51.333 39.667Z" fill="#662113"/>
<path d="M42.0003 7C55.179 7 63.4156 17.8453 63.4156 25.949C63.4156 34.0527 61.15 37.541 60.121 34.0527C58.3336 28 56.0003 28 56.0003 28C56.0003 28 46.9423 31.5887 43.6476 28.3453C43.6476 28.3453 48.5896 38.0707 38.7056 28.3453C38.7056 28.3453 40.353 34.8297 30.469 26.726C30.469 26.726 25.527 25.949 23.8796 34.0527C23.4223 36.302 20.585 34.0527 20.585 25.949C20.585 17.8453 27.1743 7 42.0003 7Z" fill="#292F33"/>
<path d="M74.9081 8.19276L42.2414 1.19276C42.0807 1.1584 41.9145 1.1584 41.7537 1.19276L9.08706 8.19276C8.8323 8.24717 8.60308 8.38527 8.43593 8.58507C8.26877 8.78487 8.17329 9.03487 8.1647 9.29523C8.15611 9.55559 8.2349 9.81133 8.38853 10.0217C8.54216 10.2321 8.76178 10.385 9.01239 10.4561L20.5484 13.7531C20.1004 15.1414 19.8321 16.7444 19.8321 18.6671C19.8321 24.0104 27.4971 26.8338 41.9987 26.8338C56.5004 26.8338 64.1654 24.0104 64.1654 18.6671C64.1654 16.7444 63.8971 15.1414 63.4491 13.7531L74.9874 10.4561C75.2379 10.3845 75.4573 10.2312 75.6106 10.0205C75.7638 9.80975 75.8421 9.55379 75.833 9.29339C75.8239 9.03299 75.7278 8.78315 75.5602 8.58367C75.3926 8.3842 75.163 8.24658 74.9081 8.19276Z" fill="#292F33"/>
<path d="M75.7873 9.01339C75.7454 8.86598 75.6748 8.72828 75.5796 8.60816C75.4844 8.48803 75.3665 8.38784 75.2326 8.3133C75.0987 8.23876 74.9514 8.19133 74.7992 8.17373C74.6469 8.15613 74.4927 8.1687 74.3453 8.21072L42.0006 17.4531L9.65363 8.21072C9.50624 8.16874 9.35203 8.15621 9.1998 8.17382C9.04757 8.19144 8.9003 8.23887 8.76639 8.31341C8.49597 8.46394 8.29641 8.71573 8.21163 9.01339C8.12685 9.31105 8.16379 9.6302 8.31432 9.90063C8.46485 10.1711 8.71664 10.3706 9.0143 10.4554L41.681 19.7887C41.8892 19.8478 42.1097 19.8478 42.318 19.7887L74.9846 10.4554C75.132 10.4134 75.2697 10.3429 75.3899 10.2477C75.51 10.1525 75.6102 10.0346 75.6847 9.90069C75.7593 9.76678 75.8067 9.61949 75.8243 9.46724C75.8419 9.315 75.8293 9.16078 75.7873 9.01339Z" fill="#66757F"/>
<path d="M41.9023 8.1716L13.9023 10.5049C13.8417 10.5096 12.8337 10.6379 12.8337 11.6669V25.8886C12.136 26.3226 11.667 27.6153 11.667 31.5003C11.667 37.2986 12.7123 42.0003 14.0003 42.0003C15.2883 42.0003 16.3337 37.2986 16.3337 31.5003C16.3337 27.6153 15.8647 26.3226 15.167 25.8886V12.7403L42.0983 10.4956C42.3996 10.4609 42.6755 10.3103 42.8676 10.0756C43.0598 9.84098 43.1529 9.54074 43.1275 9.23854C43.102 8.93635 42.9598 8.65596 42.7311 8.45679C42.5024 8.25762 42.2052 8.15533 41.9023 8.1716Z" fill="#FFCC4D"/>
</g>
<defs>
<clipPath id="clip0_209_15">
<rect width="84" height="84" fill="white"/>
</clipPath>
</defs>
</svg>
