<svg width="21" height="25" viewBox="0 0 21 25" fill="none" xmlns="http://www.w3.org/2000/svg">
<path d="M9.55849 24.243L9.26471 24.044C7.79438 23.0153 6.42812 21.8453 5.1854 20.5508C3.00191 18.2632 0.553711 14.8342 0.553711 10.7871C0.553711 5.80803 4.59477 0.842773 10.4995 0.842773C16.4043 0.842773 20.4453 5.80803 20.4453 10.7886C20.4453 14.8358 17.9971 18.2648 15.8136 20.5492C14.5709 21.8438 13.2047 23.0138 11.7343 24.0425C11.6099 24.1292 11.5119 24.1955 11.4405 24.2414C11.1299 24.448 10.8132 24.6439 10.4995 24.8428C10.1858 24.6439 9.86911 24.448 9.55849 24.243ZM10.4995 13.8488C11.3111 13.8488 12.0895 13.5264 12.6634 12.9525C13.2373 12.3786 13.5598 11.6002 13.5598 10.7886C13.5598 9.97695 13.2373 9.19857 12.6634 8.62466C12.0895 8.05075 11.3111 7.72833 10.4995 7.72833C9.68789 7.72833 8.9095 8.05075 8.3356 8.62466C7.76169 9.19857 7.43927 9.97695 7.43927 10.7886C7.43927 11.6002 7.76169 12.3786 8.3356 12.9525C8.9095 13.5264 9.68789 13.8488 10.4995 13.8488Z" fill="#464646"/>
</svg>
