<svg width="84" height="84" viewBox="0 0 84 84" fill="none" xmlns="http://www.w3.org/2000/svg">
<g clip-path="url(#clip0_209_42)">
<path d="M72.3337 84V75.8333C72.3337 68.1007 63.7353 63 56.0003 63H28.0003C20.27 63 11.667 68.1007 11.667 75.8333V84H72.3337Z" fill="#292F33"/>
<path d="M18.8995 77.7959C19.4852 77.7959 19.8352 84.0002 19.8352 84.0002H17.6045C17.6045 84.0002 18.0548 77.7959 18.8995 77.7959ZM25.8995 77.7959C26.4852 77.7959 26.8352 84.0002 26.8352 84.0002H24.6022C24.6045 84.0002 25.0548 77.7959 25.8995 77.7959ZM58.2045 77.7959C57.6212 77.7959 57.2712 84.0002 57.2712 84.0002H59.4995C59.4995 84.0002 59.0492 77.7959 58.2045 77.7959ZM65.2045 77.7959C64.6212 77.7959 64.2712 84.0002 64.2712 84.0002H66.4995C66.4995 84.0002 66.0492 77.7959 65.2045 77.7959Z" fill="#66757F"/>
<path d="M42.0001 80.2923C51.5154 75.747 55.1134 63 55.1134 63H28.8867C28.8867 63 32.4847 75.747 42.0001 80.2923Z" fill="#9266CC"/>
<path d="M30.333 63H53.3747C53.3747 63 50.444 71.1667 41.8527 71.1667C33.2613 71.1667 30.333 63 30.333 63Z" fill="#744EAA"/>
<path d="M41.8691 11.8281C51.4498 11.8281 67.4144 16.6185 67.4144 37.3735C67.4144 58.1285 67.4144 62.9188 62.6241 62.9188C57.8338 62.9188 51.4474 58.1285 41.8668 58.1285C32.2884 58.1285 26.0374 62.9188 21.1118 62.9188C15.7754 62.9188 16.3214 43.7598 16.3214 37.3735C16.3261 16.6185 32.2908 11.8281 41.8691 11.8281Z" fill="#292F33"/>
<path d="M33.4326 63.0467C33.4326 66.5 38.5006 67.6667 42.0006 67.6667C45.5006 67.6667 50.5406 66.5 50.5406 63.0467V55.5684H33.4326V63.0467Z" fill="#F7DECE"/>
<path d="M33.416 58.7511C35.803 61.4461 38.7617 62.1764 41.977 62.1764C45.1923 62.1764 48.1533 61.4484 50.5403 58.7511V51.9004H33.416V58.7511Z" fill="#EEC2AD"/>
<path d="M22.7139 36.6734C22.7139 23.0607 31.2912 12.0264 41.8705 12.0264C52.4499 12.0264 61.0295 23.0607 61.0295 36.6734C61.0295 50.2837 52.4499 60.674 41.8705 60.674C31.2912 60.674 22.7139 50.286 22.7139 36.6734Z" fill="#F7DECE"/>
<path d="M41.8691 54.9341C38.1241 54.9341 36.1618 53.0815 35.9518 52.8691C35.6625 52.5695 35.5018 52.1688 35.5039 51.7523C35.5061 51.3359 35.6709 50.9368 35.9632 50.6402C36.2556 50.3436 36.6522 50.173 37.0686 50.1648C37.4849 50.1567 37.888 50.3116 38.1918 50.5965C38.2734 50.6711 39.4821 51.7421 41.8691 51.7421C44.2934 51.7421 45.5021 50.6385 45.5488 50.5941C45.8554 50.3074 46.262 50.1518 46.6817 50.1605C47.1015 50.1692 47.5012 50.3416 47.7958 50.6408C48.4024 51.2684 48.4024 52.2531 47.7864 52.8691C47.5788 53.0815 45.6188 54.9341 41.8691 54.9341Z" fill="#DF1F32"/>
<path d="M34.0844 41.7341C33.5616 41.7317 33.0609 41.5229 32.6912 41.1532C32.3216 40.7836 32.1128 40.2829 32.1104 39.7601V37.7885C32.1104 36.7035 32.9994 35.8145 34.0844 35.8145C35.1694 35.8145 36.0607 36.7035 36.0607 37.7885V39.7601C36.0582 40.2833 35.8491 40.7843 35.479 41.1541C35.1088 41.5238 34.6075 41.7323 34.0844 41.7341ZM49.8693 41.7341C49.3466 41.7317 48.8459 41.5229 48.4762 41.1532C48.1066 40.7836 47.8978 40.2829 47.8954 39.7601V37.7885C47.8954 36.7035 48.7843 35.8145 49.8693 35.8145C50.9543 35.8145 51.8434 36.7035 51.8434 37.7885V39.7601C51.8409 40.2829 51.6321 40.7836 51.2625 41.1532C50.8928 41.5229 50.3921 41.7317 49.8693 41.7341Z" fill="#662113"/>
<path d="M43.9522 47.8333H40.0065C39.745 47.8327 39.4943 47.7285 39.3093 47.5436C39.1243 47.3586 39.0201 47.1079 39.0195 46.8463V46.4893C39.0195 45.9457 39.4605 45.5 40.0065 45.5H43.9522C44.4935 45.5 44.9392 45.9433 44.9392 46.4893V46.8463C44.9386 47.1079 44.8344 47.3586 44.6494 47.5436C44.4645 47.7285 44.2138 47.8327 43.9522 47.8333Z" fill="#C1694F"/>
<path d="M18.025 44.3332C17.976 41.9999 17.9223 43.8106 17.9223 43.2482C17.9223 35.2636 22.7126 44.4009 22.7126 38.7146C22.7126 33.0236 25.9046 32.4542 29.0966 29.2622C30.695 27.6639 33.887 24.5349 33.887 24.5349C33.887 24.5349 41.8693 29.3579 48.2556 29.3579C54.6396 29.3579 61.0283 32.5662 61.0283 38.9526C61.0283 45.3389 65.8186 35.2566 65.8186 43.2389C65.8186 43.8082 65.765 41.9999 65.7253 44.3332H67.4006C67.417 39.6666 67.417 39.8439 67.417 36.8619C67.417 16.1069 51.45 8.37891 41.8716 8.37891C32.2933 8.37891 16.3286 15.9786 16.3286 36.7336C16.3286 38.5839 16.282 39.6666 16.3473 44.3332H18.025Z" fill="#292F33"/>
<path d="M26.7024 37.1838C26.7024 40.5625 24.9897 43.3018 22.878 43.3018C20.7664 43.3018 19.0537 40.5625 19.0537 37.1838C19.0537 33.8051 20.7664 31.0635 22.878 31.0635C24.9897 31.0611 26.7024 33.8028 26.7024 37.1838ZM64.9434 37.1838C64.9434 40.5625 63.233 43.3018 61.119 43.3018C59.0074 43.3018 57.2947 40.5625 57.2947 37.1838C57.2947 33.8051 59.005 31.0635 61.119 31.0635C63.233 31.0611 64.9434 33.8028 64.9434 37.1838Z" fill="#F7DECE"/>
<path d="M74.9081 8.19276L42.2414 1.19276C42.0807 1.1584 41.9145 1.1584 41.7537 1.19276L9.08706 8.19276C8.8323 8.24717 8.60308 8.38527 8.43593 8.58507C8.26877 8.78487 8.17329 9.03487 8.1647 9.29523C8.15611 9.55559 8.2349 9.81133 8.38853 10.0217C8.54216 10.2321 8.76178 10.385 9.01239 10.4561L20.5484 13.7531C20.1004 15.1414 19.8321 16.7444 19.8321 18.6671C19.8321 24.0104 27.4971 26.8338 41.9987 26.8338C56.5004 26.8338 64.1654 24.0104 64.1654 18.6671C64.1654 16.7444 63.8971 15.1414 63.4491 13.7531L74.9874 10.4561C75.2379 10.3845 75.4573 10.2312 75.6106 10.0205C75.7638 9.80975 75.8421 9.55379 75.833 9.29339C75.8239 9.03299 75.7278 8.78315 75.5602 8.58367C75.3926 8.3842 75.163 8.24658 74.9081 8.19276Z" fill="#292F33"/>
<path d="M75.7873 9.01339C75.7454 8.86598 75.6748 8.72828 75.5796 8.60816C75.4844 8.48803 75.3665 8.38784 75.2326 8.3133C75.0987 8.23876 74.9514 8.19133 74.7992 8.17373C74.6469 8.15613 74.4927 8.1687 74.3453 8.21072L42.0006 17.4531L9.65363 8.21072C9.50624 8.16874 9.35203 8.15621 9.1998 8.17382C9.04757 8.19144 8.9003 8.23887 8.76639 8.31341C8.49597 8.46394 8.29641 8.71573 8.21163 9.01339C8.12685 9.31105 8.16379 9.6302 8.31432 9.90063C8.46485 10.1711 8.71664 10.3706 9.0143 10.4554L41.681 19.7887C41.8892 19.8478 42.1097 19.8478 42.318 19.7887L74.9846 10.4554C75.132 10.4134 75.2697 10.3429 75.3899 10.2477C75.51 10.1525 75.6102 10.0346 75.6847 9.90069C75.7593 9.76678 75.8067 9.61949 75.8243 9.46724C75.8419 9.315 75.8293 9.16078 75.7873 9.01339Z" fill="#66757F"/>
<path d="M41.9023 8.1716L13.9023 10.5049C13.8417 10.5096 12.8337 10.6379 12.8337 11.6669V25.8886C12.136 26.3226 11.667 27.6153 11.667 31.5003C11.667 37.2986 12.7123 42.0003 14.0003 42.0003C15.2883 42.0003 16.3337 37.2986 16.3337 31.5003C16.3337 27.6153 15.8647 26.3226 15.167 25.8886V12.7403L42.0983 10.4956C42.3996 10.4609 42.6755 10.3103 42.8676 10.0756C43.0598 9.84098 43.1529 9.54074 43.1275 9.23854C43.102 8.93635 42.9598 8.65596 42.7311 8.45679C42.5024 8.25762 42.2052 8.15533 41.9023 8.1716Z" fill="#FFCC4D"/>
</g>
<defs>
<clipPath id="clip0_209_42">
<rect width="84" height="84" fill="white"/>
</clipPath>
</defs>
</svg>
