<svg width="101" height="101" viewBox="0 0 101 101" fill="none" xmlns="http://www.w3.org/2000/svg">
<g clip-path="url(#clip0_227_73)">
<path d="M97.65 25.2002H3.15C2.31457 25.2002 1.51335 25.5321 0.922614 26.1228C0.331874 26.7135 0 27.5148 0 28.3502C0 29.1856 0.331874 29.9868 0.922614 30.5776C1.51335 31.1683 2.31457 31.5002 3.15 31.5002H6.3V75.6002C6.3 76.4356 6.63187 77.2368 7.22261 77.8276C7.81335 78.4183 8.61457 78.7502 9.45 78.7502C10.2854 78.7502 11.0866 78.4183 11.6774 77.8276C12.2681 77.2368 12.6 76.4356 12.6 75.6002V56.7002H88.2V75.6002C88.2 76.4356 88.5319 77.2368 89.1226 77.8276C89.7134 78.4183 90.5146 78.7502 91.35 78.7502C92.1854 78.7502 92.9867 78.4183 93.5774 77.8276C94.1681 77.2368 94.5 76.4356 94.5 75.6002V31.5002H97.65C98.4854 31.5002 99.2867 31.1683 99.8774 30.5776C100.468 29.9868 100.8 29.1856 100.8 28.3502C100.8 27.5148 100.468 26.7135 99.8774 26.1228C99.2867 25.5321 98.4854 25.2002 97.65 25.2002ZM31.5 44.1002H22.05C21.2146 44.1002 20.4134 43.7683 19.8226 43.1776C19.2319 42.5868 18.9 41.7856 18.9 40.9502C18.9 40.1148 19.2319 39.3135 19.8226 38.7228C20.4134 38.1321 21.2146 37.8002 22.05 37.8002H31.5C32.3354 37.8002 33.1366 38.1321 33.7274 38.7228C34.3181 39.3135 34.65 40.1148 34.65 40.9502C34.65 41.7856 34.3181 42.5868 33.7274 43.1776C33.1366 43.7683 32.3354 44.1002 31.5 44.1002ZM53.55 47.2502C53.55 48.0856 53.2181 48.8868 52.6274 49.4776C52.0367 50.0683 51.2354 50.4002 50.4 50.4002C49.5646 50.4002 48.7634 50.0683 48.1726 49.4776C47.5819 48.8868 47.25 48.0856 47.25 47.2502V34.6502C47.25 33.8148 47.5819 33.0135 48.1726 32.4228C48.7634 31.8321 49.5646 31.5002 50.4 31.5002C51.2354 31.5002 52.0367 31.8321 52.6274 32.4228C53.2181 33.0135 53.55 33.8148 53.55 34.6502V47.2502ZM78.75 44.1002H69.3C68.4646 44.1002 67.6634 43.7683 67.0726 43.1776C66.4819 42.5868 66.15 41.7856 66.15 40.9502C66.15 40.1148 66.4819 39.3135 67.0726 38.7228C67.6634 38.1321 68.4646 37.8002 69.3 37.8002H78.75C79.5854 37.8002 80.3867 38.1321 80.9774 38.7228C81.5681 39.3135 81.9 40.1148 81.9 40.9502C81.9 41.7856 81.5681 42.5868 80.9774 43.1776C80.3867 43.7683 79.5854 44.1002 78.75 44.1002Z" fill="white"/>
</g>
<defs>
<clipPath id="clip0_227_73">
<rect width="100.8" height="100.8" fill="white"/>
</clipPath>
</defs>
</svg>
