<svg width="169" height="61" viewBox="0 0 169 61" fill="none" xmlns="http://www.w3.org/2000/svg">
<path d="M2.52181 12.1076C4.09835 10.6027 4.91051 9.33069 5.11952 8.88281C5.17924 8.88281 5.35242 8.91864 5.56741 9.06197C5.78239 9.20529 9.06089 11.6895 10.6733 12.9138C10.733 13.1526 10.8166 13.702 10.6733 13.9887C10.4941 14.347 9.06089 16.8551 8.88173 16.9447C8.70258 17.0343 8.43385 17.303 7.89639 16.8551C7.03646 15.0636 4.13418 13.2422 2.79054 12.5554C2.6711 12.5256 2.45015 12.3942 2.52181 12.1076Z" fill="#F29D6F"/>
<path d="M0.108908 22.2303C1.32715 20.9404 1.87058 19.7222 1.99001 19.2743C1.99001 19.125 2.15125 18.9518 2.7962 19.4535C5.8418 21.5137 8.08121 23.3948 8.17079 23.4844C8.26036 23.574 8.43952 24.0219 8.34994 24.828C8.27828 25.473 7.30488 26.948 6.82714 27.6049C6.58827 27.9334 6.00304 28.3932 5.57307 27.6049C4.49815 25.9567 1.66157 23.9323 0.377637 23.1261C0.168626 23.0365 -0.177736 22.732 0.108908 22.2303Z" fill="#F29D6F"/>
<path d="M0.377637 40.5935C4.03236 36.8671 6.79728 31.397 7.72291 29.1277C8.06588 28.3394 8.58242 28.6201 8.79782 28.859C9.2457 29.3666 10.1594 30.4714 10.231 30.8297C10.231 36.1147 4.67731 42.2954 4.58773 42.385C4.49815 42.4746 1.99001 45.2515 0.82552 43.0121C0.735944 42.8329 -0.249397 41.0414 0.377637 40.5935Z" fill="#F29D6F"/>
<path d="M10.6789 19.4535C13.4737 16.6587 14.5307 12.7352 14.7099 11.1229C14.9249 10.1913 15.8744 10.1972 16.3222 10.3167C17.009 10.6153 18.4183 11.3199 18.5617 11.7499C18.6512 12.4665 17.845 14.3476 17.9346 14.4372C18.0063 14.5088 19.9352 14.467 20.8906 14.4372C20.9802 14.4372 21.1773 14.3834 21.2489 14.1684C21.4281 11.7499 21.2489 10.4062 21.2489 9.95836C21.2489 9.60005 21.7267 9.45076 21.9656 9.4209H24.7424C25.1007 9.4209 25.4889 9.7792 25.6382 9.95836V14.3476H32.2668C32.8401 14.4909 32.9237 14.9448 32.8939 15.1538V17.6619C32.8939 17.9486 32.7744 18.08 32.7147 18.1098C32.4161 18.1397 31.5682 18.1815 30.5649 18.1098C27.6089 17.9307 26.2652 18.1098 25.9069 18.1098C25.6203 18.1098 25.4889 18.289 25.459 18.3785V23.574L28.3255 23.6635C25.5785 24.7086 19.8516 26.8525 18.92 27.0675C17.9884 27.1391 15.0085 27.2765 13.6349 27.3362C12.3809 27.2466 11.4851 27.6945 11.3955 26.0821C11.306 22.7678 11.306 23.1261 12.2017 23.4844C12.56 23.574 12.2913 23.574 13.0079 23.6635C15.6952 23.7531 21.1594 23.7531 21.5177 23.4844C21.661 22.7678 21.5774 19.9013 21.5177 18.5577C21.5774 18.4681 21.5714 18.2531 21.0698 18.1098C20.5323 18.1098 18.3825 18.0202 16.6805 18.289C14.3516 22.4991 13.3662 23.6635 12.2017 22.2303C11.0372 20.7971 9.78316 20.3492 10.6789 19.4535Z" fill="#F29D6F"/>
<path d="M31.076 11.1502L60.1885 1.29678C63.2341 0.311436 61.9801 2.01339 61.8009 2.99873C60.6364 6.04433 53.9182 22.7951 52.7537 23.6013C49.7977 21.7202 49.081 20.8244 48.1853 19.7495C46.8416 18.0476 43.8856 16.6143 43.169 16.3456C42.5957 16.1306 42.8704 15.838 43.0794 15.7186C48.036 12.0459 58.644 4.11941 59.5615 3.26746C60.8156 2.10295 59.8054 2.76813 59.4719 2.99873C53.4703 7.1491 41.7357 14.3749 40.9295 14.5541C40.0337 13.6583 38.9588 13.3 38.3318 13.2104C32.0256 12.4938 30.8371 11.5981 31.076 11.1502Z" fill="white" stroke="black" stroke-opacity="0.3" stroke-width="0.24"/>
<path d="M37.1129 17.9997C37.8295 15.7066 38.4827 15.2844 38.7514 15.1948C39.0201 15.1052 39.1553 15.0795 40.1585 15.9395C41.7709 17.1935 43.1146 17.1935 42.0397 18.1789C39.4419 20.2391 38.2774 21.5828 35.4109 24.0909C32.9028 27.1724 27.7968 29.1072 25.647 29.9134C0.565568 42.7228 10.419 55.3531 14.8082 54.6365C15.4486 54.5319 15.913 54.5469 16.0623 54.5469C16.6594 54.7559 17.3163 55.0485 16.958 55.2635C16.5997 55.2635 16.3907 55.3232 16.331 55.3531C15.5248 55.4427 13.6258 55.5322 12.4793 55.1739C-1.94255 51.143 10.2398 34.0339 18.3017 30.3613C26.3636 26.6886 24.3034 28.6593 30.0363 25.345C35.7692 22.0307 36.2171 20.8662 37.1129 17.9997Z" fill="#FFF9F0" stroke="black" stroke-opacity="0.3" stroke-width="0.24"/>
<path fill-rule="evenodd" clip-rule="evenodd" d="M20.2979 56.845V49.0519C20.3874 48.8727 20.5666 48.604 21.1936 48.5144C30.2645 49.0105 30.5894 48.7777 30.8172 48.6145C30.8774 48.5714 30.9308 48.5331 31.1366 48.5144C31.8834 48.4465 32.5272 48.4815 32.9122 48.5025C33.0352 48.5092 33.1318 48.5144 33.1969 48.5144C33.4656 48.5144 34.2718 49.231 34.2718 49.6789C34.2718 49.767 34.2683 50.0216 34.2634 50.3801C34.2435 51.8454 34.1998 55.0505 34.2718 55.7701C34.3613 56.6659 33.5552 57.1138 33.4656 57.1138C33.4557 57.1138 33.4085 57.1149 33.3304 57.1167C32.6986 57.1313 30.0235 57.1935 28.2702 57.1138C26.2995 57.0242 25.4933 57.0242 24.4184 57.2033C23.3434 57.3825 21.104 57.3825 21.0145 57.3825C20.9249 57.3825 20.2979 57.2929 20.2979 56.845ZM24.1496 51.7392C24.2392 52.2766 24.3646 53.4949 24.1496 54.0682C24.078 54.2831 24.4184 54.2772 24.5975 54.2473C25.6426 54.1876 28.2522 54.104 30.3304 54.2473C30.411 54.1667 30.401 53.9956 30.3818 53.6687C30.3584 53.2687 30.3214 52.6355 30.42 51.6496C30.42 51.6197 30.3842 51.56 30.2408 51.56C30.2159 51.56 30.1023 51.5635 29.9226 51.569C28.812 51.603 25.1769 51.7142 24.3288 51.56C24.1496 51.6496 24.1198 51.6794 24.1496 51.7392Z" fill="#F29D6F"/>
<path d="M32.0382 28.4002L33.7401 26.8774C34.0268 26.5191 34.4568 26.6087 34.6359 26.6983C35.4421 26.967 36.6962 28.5794 36.9649 28.9377C37.144 29.1168 37.144 29.7439 36.9649 30.1022C37.9502 30.0126 45.0268 30.2813 45.4747 30.2813C46.1017 30.4605 46.2808 30.7292 46.3704 30.9084C46.46 31.0875 46.46 33.5957 46.3704 34.0436C46.2988 34.4019 45.8628 34.4317 45.6538 34.4019C44.5789 34.1869 43.8623 34.0436 43.0561 34.0436C34.4568 34.0436 34.5463 34.1331 35.1734 34.6706C37.4128 35.4768 42.8769 37.4475 43.4144 37.6266C43.9519 37.8058 44.758 38.7015 44.3997 39.5973C44.1131 40.3139 42.8471 41.2694 42.2499 41.6575L42.7874 42.195C42.8172 42.2547 43.0023 42.3921 43.504 42.4637C44.131 42.5533 47.1766 42.4637 47.4453 42.4637C47.6603 42.4637 47.7738 42.7026 47.8036 42.822V45.6885C47.8036 45.8318 47.6842 45.9871 47.6245 46.0468H42.6978C42.4828 46.0468 42.4291 46.2259 42.4291 46.3155C42.4888 48.5549 42.5724 53.8937 42.4291 57.3334C42.2499 61.6331 35.0838 61.0061 34.7255 60.9165C34.4388 60.8448 34.3672 60.6477 34.3672 60.5582V57.6022C34.3672 57.4588 34.606 57.3633 34.7255 57.3334H37.3232C37.5322 57.3334 37.9861 57.1901 38.1294 56.6168C38.416 54.1087 38.2488 48.7042 38.1294 46.3155C38.1592 46.2259 38.1294 46.0468 37.7711 46.0468C36.3379 46.0468 16.8102 46.1364 16.1832 46.0468C15.6815 45.9751 15.6158 45.7781 15.6457 45.6885V43.0012C15.7353 42.9116 15.377 42.9116 16.2727 42.3742C22.8926 42.9474 33.5424 42.613 38.0398 42.3742C38.7564 41.1201 38.9356 41.1201 39.473 40.4931C39.258 40.2064 35.2629 38.7015 33.2923 37.9849C33.143 37.8655 32.7727 37.6983 32.4861 37.9849C30.4796 39.5615 25.9171 41.3888 23.8867 42.1054C23.0805 42.1353 21.3428 42.1771 20.8411 42.1054C18.9779 39.3823 20.0051 38.6418 20.7516 38.6119C25.7678 37.6266 29.2613 35.1185 28.8134 35.1185C27.9177 35.3872 23.409 35.4469 21.1994 35.3872C20.9606 35.208 20.6262 34.8139 21.1994 34.6706C24.8721 33.6852 29.7092 30.4605 29.8884 30.2813C30.0675 30.1022 30.5154 30.1022 30.605 30.1022H31.9486C32.0979 30.132 32.3607 30.1022 32.2173 29.7439C31.7695 28.669 31.6799 28.669 32.0382 28.4002Z" fill="#F29D6F"/>
<path d="M71.8076 22.293C71.8638 31.8953 71.8989 37.9074 71.9095 39.7131" stroke="#989090" stroke-width="0.104312"/>
<path d="M90.9504 24.6168H100.627V25.9224H90.9504V24.6168ZM90.4704 31.8936H100.243V38.8632H98.7648V33.1992H91.8912V38.9976H90.4704V31.8936ZM94.56 21.4872H96.0192V29.3592H94.56V21.4872ZM88.8384 28.8216H101.299V30.1464H88.8384V28.8216ZM91.2192 36.8664H99.5328V38.1528H91.2192V36.8664ZM91.1616 22.1784L92.5632 22.4856C92.3712 23.228 92.1344 23.964 91.8528 24.6936C91.584 25.4232 91.2832 26.108 90.9504 26.748C90.6304 27.388 90.2848 27.9512 89.9136 28.4376C89.824 28.3608 89.7024 28.2776 89.5488 28.188C89.3952 28.0856 89.2416 27.9896 89.088 27.9C88.9344 27.8104 88.8 27.74 88.6848 27.6888C89.248 26.9976 89.7344 26.1656 90.144 25.1928C90.5664 24.22 90.9056 23.2152 91.1616 22.1784ZM84.6528 22.5816L85.5168 21.6024C85.9136 21.82 86.336 22.0696 86.784 22.3512C87.2448 22.62 87.68 22.8952 88.0896 23.1768C88.512 23.4456 88.8576 23.6888 89.1264 23.9064L88.2432 25.0392C87.9872 24.8088 87.6544 24.5528 87.2448 24.2712C86.8352 23.9768 86.4 23.6824 85.9392 23.388C85.4912 23.0808 85.0624 22.812 84.6528 22.5816ZM83.6736 27.9192L84.4608 26.8632C84.832 27.0424 85.2352 27.2472 85.6704 27.4776C86.1056 27.6952 86.5216 27.9192 86.9184 28.1496C87.328 28.38 87.6608 28.5912 87.9168 28.7832L87.1104 29.9736C86.8544 29.7816 86.528 29.564 86.1312 29.3208C85.7472 29.0776 85.3376 28.8344 84.9024 28.5912C84.48 28.3352 84.0704 28.1112 83.6736 27.9192ZM84.3264 37.8072C84.672 37.3208 85.056 36.7384 85.4784 36.06C85.9008 35.3688 86.3296 34.6392 86.7648 33.8712C87.2 33.0904 87.6032 32.3416 87.9744 31.6248L89.0112 32.5656C88.6784 33.244 88.3136 33.948 87.9168 34.6776C87.52 35.4072 87.1168 36.124 86.7072 36.828C86.2976 37.532 85.9008 38.1848 85.5168 38.7864L84.3264 37.8072ZM105.965 28.956H123.187V30.2808H105.965V28.956ZM106.925 23.1576H122.266V24.444H106.925V23.1576ZM119.059 29.5704H120.538V37.2888C120.538 37.724 120.467 38.0568 120.326 38.2872C120.198 38.5176 119.962 38.6968 119.616 38.8248C119.258 38.9272 118.771 38.9848 118.157 38.9976C117.555 39.0232 116.806 39.036 115.91 39.036C115.872 38.8312 115.802 38.6008 115.699 38.3448C115.597 38.0888 115.488 37.8648 115.373 37.6728C115.859 37.6856 116.32 37.692 116.755 37.692C117.203 37.7048 117.587 37.7048 117.907 37.692C118.227 37.692 118.445 37.692 118.56 37.692C118.765 37.6792 118.899 37.6408 118.963 37.5768C119.027 37.5256 119.059 37.4232 119.059 37.2696V29.5704ZM107.942 31.836H109.306V38.076H107.942V31.836ZM108.96 31.836H115.622V36.8088H108.96V35.6376H114.24V33.0072H108.96V31.836ZM114.01 21.3528H115.488C115.411 22.236 115.277 23.036 115.085 23.7528C114.906 24.4568 114.637 25.084 114.278 25.6344C113.92 26.1848 113.44 26.6712 112.838 27.0936C112.237 27.5032 111.482 27.8552 110.573 28.1496C109.664 28.4312 108.563 28.6616 107.27 28.8408C107.219 28.6744 107.123 28.476 106.982 28.2456C106.854 28.0152 106.733 27.836 106.618 27.708C107.808 27.5544 108.813 27.356 109.632 27.1128C110.464 26.8696 111.149 26.5816 111.686 26.2488C112.224 25.9032 112.646 25.4936 112.954 25.02C113.274 24.5464 113.51 24.0088 113.664 23.4072C113.818 22.8056 113.933 22.1208 114.01 21.3528ZM113.222 25.6728L114.298 24.732C114.938 24.9368 115.603 25.1736 116.294 25.4424C116.998 25.6984 117.696 25.9672 118.387 26.2488C119.078 26.5176 119.731 26.7864 120.346 27.0552C120.96 27.3112 121.498 27.548 121.958 27.7656L120.902 28.8024C120.454 28.5848 119.923 28.3416 119.309 28.0728C118.707 27.7912 118.054 27.5096 117.35 27.228C116.659 26.9464 115.962 26.6712 115.258 26.4024C114.554 26.1336 113.875 25.8904 113.222 25.6728ZM129.389 29.2248H135.168V30.396H129.389V29.2248ZM128.602 23.388H134.88V24.636H128.602V23.388ZM127.834 26.5368H137.146V27.804H127.834V26.5368ZM131.136 21.372H132.48V27.1896H131.136V21.372ZM136.224 21.8136L137.568 22.1976C136.608 24.5784 135.347 26.6648 133.786 28.4568C132.237 30.2488 130.458 31.7144 128.448 32.8536C128.384 32.764 128.288 32.6488 128.16 32.508C128.045 32.3672 127.917 32.2328 127.776 32.1048C127.648 31.964 127.533 31.8488 127.43 31.7592C129.44 30.7352 131.187 29.372 132.672 27.6696C134.17 25.9672 135.354 24.0152 136.224 21.8136ZM131.904 31.8168H133.248V37.5C133.248 37.8712 133.203 38.1528 133.114 38.3448C133.024 38.5496 132.845 38.7032 132.576 38.8056C132.307 38.908 131.962 38.972 131.539 38.9976C131.117 39.0232 130.598 39.036 129.984 39.036C129.958 38.844 129.901 38.6264 129.811 38.3832C129.734 38.1528 129.645 37.948 129.542 37.7688C130.016 37.7816 130.438 37.788 130.81 37.788C131.181 37.788 131.437 37.7816 131.578 37.7688C131.706 37.7688 131.789 37.7432 131.827 37.692C131.878 37.6536 131.904 37.5832 131.904 37.4808V31.8168ZM134.88 29.2248H135.187L135.456 29.148L136.282 29.7624C135.834 30.3256 135.302 30.8824 134.688 31.4328C134.086 31.9832 133.504 32.444 132.941 32.8152C132.851 32.7 132.73 32.572 132.576 32.4312C132.422 32.2776 132.294 32.156 132.192 32.0664C132.525 31.8488 132.858 31.5928 133.19 31.2984C133.536 30.9912 133.856 30.6776 134.15 30.3576C134.445 30.0376 134.688 29.7368 134.88 29.4552V29.2248ZM127.738 33.9288C128.518 33.8648 129.421 33.7816 130.445 33.6792C131.482 33.5768 132.576 33.468 133.728 33.3528C134.893 33.2248 136.051 33.1032 137.203 32.988V34.236C136.102 34.364 134.989 34.492 133.862 34.62C132.736 34.7352 131.667 34.8504 130.656 34.9656C129.645 35.068 128.73 35.164 127.91 35.2536L127.738 33.9288ZM138.643 24.9432H145.478V26.2872H138.643V24.9432ZM139.142 21.372L140.602 21.6024C140.384 22.8056 140.109 23.9704 139.776 25.0968C139.443 26.2232 139.059 27.2792 138.624 28.2648C138.202 29.2376 137.722 30.0888 137.184 30.8184C137.107 30.7288 136.998 30.62 136.858 30.492C136.717 30.364 136.563 30.2424 136.397 30.1272C136.243 29.9992 136.109 29.9032 135.994 29.8392C136.518 29.1736 136.979 28.3928 137.376 27.4968C137.786 26.588 138.138 25.6152 138.432 24.5784C138.726 23.5288 138.963 22.46 139.142 21.372ZM142.829 25.692L144.307 25.8456C144 28.0472 143.539 29.9928 142.925 31.6824C142.323 33.3592 141.504 34.8056 140.467 36.0216C139.443 37.2376 138.125 38.2616 136.512 39.0936C136.461 38.9784 136.384 38.8376 136.282 38.6712C136.179 38.5048 136.07 38.3384 135.955 38.172C135.853 38.0184 135.75 37.8968 135.648 37.8072C137.171 37.0904 138.413 36.1752 139.373 35.0616C140.333 33.948 141.082 32.6168 141.619 31.068C142.17 29.5064 142.573 27.7144 142.829 25.692ZM139.373 26.0952C139.654 27.8616 140.051 29.5192 140.563 31.068C141.088 32.6168 141.76 33.9736 142.579 35.1384C143.411 36.2904 144.429 37.1864 145.632 37.8264C145.517 37.916 145.389 38.0312 145.248 38.172C145.12 38.3128 144.998 38.46 144.883 38.6136C144.768 38.78 144.672 38.9272 144.595 39.0552C143.354 38.3 142.304 37.3016 141.446 36.06C140.589 34.8056 139.891 33.3528 139.354 31.7016C138.816 30.0504 138.387 28.252 138.067 26.3064L139.373 26.0952ZM153.024 29.5128H163.565V30.7224H154.464V39.036H153.024V29.5128ZM163.066 29.5128H164.525V37.5C164.525 37.884 164.461 38.1784 164.333 38.3832C164.218 38.588 164.013 38.7352 163.718 38.8248C163.411 38.9272 163.002 38.9848 162.49 38.9976C161.978 39.0232 161.338 39.036 160.57 39.036C160.531 38.8568 160.467 38.652 160.378 38.4216C160.288 38.204 160.192 38.012 160.09 37.8456C160.474 37.8584 160.838 37.8648 161.184 37.8648C161.53 37.8648 161.837 37.8584 162.106 37.8456C162.374 37.8456 162.56 37.8456 162.662 37.8456C162.816 37.8456 162.918 37.8136 162.97 37.7496C163.034 37.6984 163.066 37.6088 163.066 37.4808V29.5128ZM153.869 32.2008H163.661V33.276H153.869V32.2008ZM150.278 23.2536H167.174V24.54H150.278V23.2536ZM155.616 24.0216L157.171 24.4824C156.762 25.0712 156.307 25.6728 155.808 26.2872C155.309 26.9016 154.854 27.4264 154.445 27.8616L153.293 27.42C153.549 27.1128 153.818 26.7608 154.099 26.364C154.394 25.9672 154.669 25.564 154.925 25.1544C155.194 24.7448 155.424 24.3672 155.616 24.0216ZM160.954 25.2504L162.106 24.5016C162.669 24.8728 163.258 25.2888 163.872 25.7496C164.499 26.1976 165.088 26.652 165.638 27.1128C166.189 27.5736 166.637 27.9896 166.982 28.3608L165.773 29.2248C165.453 28.8408 165.024 28.4184 164.486 27.9576C163.949 27.484 163.373 27.0104 162.758 26.5368C162.144 26.0632 161.542 25.6344 160.954 25.2504ZM151.027 26.9784C151.885 26.9784 152.851 26.972 153.926 26.9592C155.014 26.9336 156.173 26.9144 157.402 26.9016C158.63 26.876 159.891 26.8504 161.184 26.8248C162.49 26.7992 163.782 26.7736 165.062 26.748L164.986 27.9384C163.309 27.9896 161.626 28.0408 159.936 28.092C158.246 28.1432 156.64 28.188 155.117 28.2264C153.594 28.2648 152.25 28.2968 151.085 28.3224L151.027 26.9784ZM153.869 34.7544H163.603V35.8296H153.869V34.7544ZM157.939 21.3528H159.418V23.868H157.939V21.3528Z" fill="#464646"/>
</svg>
